<?xml version="1.0" encoding="UTF-8"?>
<!DOCTYPE svg PUBLIC "-//W3C//DTD SVG 1.1//EN" "http://www.w3.org/Graphics/SVG/1.1/DTD/svg11.dtd">
<!-- Creator: CorelDRAW 2019 (64-Bit) -->
<svg xmlns="http://www.w3.org/2000/svg" xml:space="preserve" width="189.262mm" height="189.261mm" version="1.1" style="shape-rendering:geometricPrecision; text-rendering:geometricPrecision; image-rendering:optimizeQuality; fill-rule:evenodd; clip-rule:evenodd"
viewBox="0 0 189.1205 189.1201"
 xmlns:xlink="http://www.w3.org/1999/xlink"
 xmlns:xodm="http://www.corel.com/coreldraw/odm/2003">
 <defs>
  <style type="text/css">
   <![CDATA[
    .str0 {stroke:black;stroke-width:1.41;stroke-miterlimit:22.9256}
    .fil1 {fill:#D1122E}
    .fil2 {fill:black}
    .fil0 {fill:white}
   ]]>
  </style>
 </defs>
 <g id="Layer_x0020_1">
  <metadata id="CorelCorpID_0Corel-Layer"/>
  <g id="_878583904">
   <path class="fil0 str0" d="M94.561 188.415c51.8345,0 93.8544,-42.0217 93.8544,-93.8552 0,-51.8321 -42.0199,-93.8547 -93.8544,-93.8547 -51.8347,0 -93.8559,42.0226 -93.8559,93.8547 -0.0005,51.8335 42.0212,93.8552 93.8559,93.8552z"/>
   <path class="fil1" d="M172.2662 110.2738c0.5192,-2.5867 0.9114,-5.1916 1.171,-7.7997 0.2542,-2.5721 0.3853,-5.2111 0.3853,-7.9143 0,-21.887 -8.8728,-41.7011 -23.2154,-56.0464 -14.344,-14.3413 -34.1603,-23.2143 -56.0474,-23.2143 -0.3147,0 -0.6361,0.0014 -0.9633,0.0054l-0.0362 -3.0888c0.327,-0.004 0.6604,-0.0067 0.9995,-0.0067 22.7402,0 43.3267,9.2182 58.2301,24.1216 14.9019,14.9034 24.1215,35.4895 24.1215,58.2291 0,2.7414 -0.1392,5.4828 -0.4095,8.2163 -0.2744,2.7712 -0.6799,5.4756 -1.2085,8.1005l-3.0272 -0.6027z"/>
   <path class="fil1" d="M169.437 109.7144c0.4978,-2.4737 0.8766,-4.9841 1.127,-7.5222 0.2489,-2.5019 0.3772,-5.0469 0.3772,-7.6313 0,-21.0909 -8.5504,-40.1859 -22.3724,-54.0079 -13.8206,-13.8207 -32.9166,-22.3711 -54.0073,-22.3711 -0.1709,0 -0.3418,0.0014 -0.5143,0.0014 -0.1678,0.0013 -0.3373,0.0013 -0.5112,0.0066l-0.009 -0.7721c0.1694,-0.0027 0.3439,-0.0054 0.5174,-0.0054 0.1717,-0.0014 0.3446,-0.0014 0.5171,-0.0014 21.3036,0 40.5935,8.6362 54.5534,22.5973 13.9625,13.9612 22.5985,33.2489 22.5985,54.5531 0,2.5938 -0.1298,5.1648 -0.3826,7.705 -0.2556,2.5815 -0.637,5.118 -1.1363,7.6001l-0.7575 -0.1522z"/>
   <path class="fil1" d="M177.3491 111.3649c0.5541,-2.7442 0.9742,-5.5269 1.2553,-8.3415 0.2743,-2.7759 0.4175,-5.5989 0.4175,-8.4636 0,-23.3221 -9.4537,-44.4366 -24.7385,-59.7227 -15.2833,-15.2834 -36.3998,-24.7371 -59.7223,-24.7371 -0.171,0 -0.3419,0.0013 -0.5144,0.0013 -0.1678,0 -0.3387,0.0027 -0.5112,0.004l-0.0095 -0.7708c0.1694,-0.0027 0.343,-0.0041 0.518,-0.0054 0.1716,0 0.3441,-0.0027 0.5171,-0.0027 23.5352,0 44.8432,9.5422 60.2685,24.9648 15.4238,15.4253 24.9634,36.7329 24.9634,60.2682 0,2.8742 -0.1432,5.7233 -0.4217,8.5384 -0.2851,2.8574 -0.7107,5.6658 -1.2648,8.4176l-0.7573 -0.1505z"/>
   <path class="fil1" d="M15.4254 90.0905c-0.0444,0.7842 -0.0756,1.5276 -0.0956,2.2328 -0.0209,0.7553 -0.0308,1.503 -0.0308,2.2364 0,21.888 8.872,41.7038 23.2143,56.0466 14.3444,14.3418 34.1597,23.216 56.0478,23.216 1.9217,0 3.8657,-0.0731 5.8242,-0.2165 1.9938,-0.1453 3.915,-0.3522 5.7672,-0.6241l0.4454 3.053c-2.0257,0.2954 -4.0264,0.5197 -5.9946,0.6602 -1.9598,0.1433 -3.9746,0.2154 -6.0416,0.2154 -22.7392,0 -43.3287,-9.218 -58.2308,-24.1209 -14.9021,-14.9038 -24.1202,-35.49 -24.1202,-58.2296 0,-0.7898 0.012,-1.5647 0.0313,-2.3217 0.0241,-0.816 0.0549,-1.5892 0.0947,-2.3154l3.0889 0.1678z"/>
   <path class="fil1" d="M18.2912 90.4168c-0.0371,0.6969 -0.0648,1.3853 -0.0824,2.066 -0.0185,0.6927 -0.0278,1.3865 -0.0278,2.077 0,21.0908 8.5494,40.1856 22.371,54.0083 13.8218,13.8217 32.917,22.3701 54.009,22.3701 1.8945,0 3.786,-0.0696 5.6631,-0.2075 1.9041,-0.1391 3.7756,-0.3466 5.6115,-0.6184l0.1124 0.7642c-1.882,0.2782 -3.7719,0.4882 -5.6691,0.6273 -1.8782,0.137 -3.787,0.208 -5.7179,0.208 -21.3047,0 -40.5929,-8.6373 -54.5553,-22.5989 -13.9618,-13.9603 -22.597,-33.2486 -22.597,-54.5531 0,-0.7031 0.0091,-1.4016 0.0279,-2.0947 0.0171,-0.7089 0.0459,-1.4058 0.0826,-2.0879l0.772 0.0397z"/>
   <path class="fil1" d="M10.2406 89.6457c-0.0467,0.825 -0.0819,1.6447 -0.1055,2.4561 -0.023,0.8192 -0.0351,1.6395 -0.0351,2.4581 0,23.3224 9.4539,44.4379 24.7377,59.7228 15.2848,15.2827 36.4001,24.7375 59.7233,24.7375 2.0571,0 4.1068,-0.0762 6.1446,-0.2216 2.0675,-0.1484 4.098,-0.3696 6.0914,-0.6581l0.1076 0.7622c-2.0408,0.2964 -4.0905,0.5217 -6.1435,0.6687 -2.0384,0.1437 -4.1069,0.2215 -6.2001,0.2215 -23.5362,0 -44.8446,-9.5406 -60.269,-24.9656 -15.4235,-15.424 -24.9648,-36.7302 -24.9648,-60.2664 0,-0.8345 0.0127,-1.6605 0.0356,-2.4801 0.0247,-0.8379 0.0598,-1.6645 0.1066,-2.4763l0.7711 0.0412z"/>
   <path class="fil2" d="M116.3915 173.312l-2.0065 0.5296 0.1207 -3.4184 1.8858 2.8888zm-1.4811 -5.0771l0 0 -1.8847 0.4956 -0.4818 8.8405 1.7208 -0.4558 0.0634 -1.7398 2.9145 -0.7679 0.9609 1.4716 1.7496 -0.4611 -5.0426 -7.3832z"/>
   <polygon class="fil2" points="126.047,164.2535 127.398,163.6914 130.6365,171.4678 129.087,172.1149 127.0628,167.2557 126.4004,170.396 126.1641,170.4943 123.4673,168.7519 125.4914,173.6116 123.9414,174.2568 120.7012,166.4784 122.0511,165.9158 125.2515,167.9698 "/>
   <path class="fil2" d="M135.776 161.5706c-1.1203,0.0178 -1.7305,0.1248 -2.2281,0.412 -0.5217,0.2995 -0.7204,0.7287 -0.5108,1.0915 0.6347,1.1025 3.428,-0.9179 4.8948,1.632 0.8071,1.4017 0.3321,2.7588 -0.9702,3.5064 -1.0185,0.5861 -1.7143,0.5447 -2.5152,0.506l-0.905 -1.5741c1.2401,0.2112 1.8959,0.1627 2.5382,-0.2043 0.5595,-0.3231 0.7148,-0.7398 0.4698,-1.1684 -0.6906,-1.1993 -3.4106,0.9483 -4.9197,-1.6735 -0.7251,-1.264 -0.333,-2.6018 1.0204,-3.3796 0.6507,-0.377 1.3409,-0.5438 2.3053,-0.572l0.8205 1.424z"/>
   <polygon class="fil2" points="143.672,155.2329 141.7128,156.6894 145.8173,162.2135 144.4696,163.2146 140.3651,157.6926 138.4057,159.1464 137.4838,157.908 142.7512,153.995 "/>
   <polygon class="fil2" points="154.7022,154.4901 151.0888,157.9064 145.3007,151.7842 148.862,148.416 149.9232,149.5383 147.5826,151.7502 148.7964,153.0342 151.03,150.9237 152.09,152.0451 149.8562,154.1581 151.2495,155.6286 153.6396,153.3672 "/>
   <path class="fil2" d="M153.6664 145.4314l0.5474 -0.6535c0.4055,-0.4835 0.8606,-0.5274 1.3437,-0.1207 0.5488,0.4601 0.4456,0.9656 0.1472,1.3221l-0.5714 0.6822 -1.4669 -1.2301zm-2.2629 0.2938l0 0 6.4546 5.4155 1.08 -1.2876 -2.6203 -2.2014 0.3104 -0.3701c0.5849,-0.6958 1.9954,0.1396 3.8422,0.7464l1.1872 -1.4167c-2.5027,-0.8604 -3.4301,-1.3701 -4.2064,-1.1176 0.154,-0.8745 -0.1284,-1.6159 -0.8378,-2.2123 -0.9663,-0.8083 -2.3834,-0.9258 -3.2722,0.1322l-1.9378 2.3117z"/>
   <path class="fil2" d="M159.2418 138.132l0.5848 -0.906c0.8634,-1.3383 2.2284,-1.1977 3.4434,-0.4129 1.0373,0.6681 1.9674,1.8688 1.052,3.2902l-0.5942 0.9211 -4.4861 -2.8924zm-2.207 0.5745l0 0 7.0797 4.5675 1.511 -2.3415c1.4561,-2.2595 0.6262,-4.2559 -1.4079,-5.5676 -1.9406,-1.2525 -4.237,-1.2264 -5.5713,0.8412l-1.6114 2.5004z"/>
   <path class="fil2" d="M168.6541 129.0461l-0.8979 1.869 -2.5228 -2.3081 3.4207 0.4391zm-4.8246 -2.1679l0 0 -0.8431 1.7549 6.4144 6.1018 0.7709 -1.6043 -1.2847 -1.1763 1.3062 -2.7179 1.7437 0.2242 0.7828 -1.6295 -8.8903 -0.953z"/>
   <polygon class="fil2" points="168.0252,115.8094 168.4735,114.4158 176.4939,116.9947 175.9812,118.5938 170.9707,116.9857 172.9299,119.5243 172.8511,119.7695 169.7783,120.6906 174.7888,122.3007 174.275,123.901 166.2532,121.3231 166.7001,119.9294 170.339,118.8269 "/>
   <path class="fil2" d="M12.0531 71.575l8.9724 -0.7763 -1.7205 6.3156 -7.2519 -5.5393zm14.1823 10.9264l0 0 -3.684 -2.8433 2.5115 -9.2196 4.5674 -0.3989 1.5464 -5.6742 -23.6492 2.5118 -1.6829 6.1776 18.8388 15.1517 1.552 -5.7051z"/>
   <path class="fil2" d="M36.2733 60.8769c0.7483,-1.1338 1.0402,-2.042 0.8776,-2.7252 -0.1642,-0.6832 -0.9782,-1.5421 -2.4435,-2.5773l-16.2426 -11.4869 3.2078 -4.5368 16.3988 11.5949c2.5398,1.7974 4.0177,3.4836 4.4331,5.0576 0.4147,1.5768 -0.095,3.4414 -1.5306,5.6l-4.7007 -0.9264z"/>
   <path class="fil2" d="M43.97 25.4047l7.5207 4.9624 -5.2519 3.8825 -2.2688 -8.8449zm4.3752 17.3618l0 0 -1.1427 -4.5275 7.6679 -5.6677 3.8382 2.536 4.718 -3.4876 -20.0917 -12.6857 -5.1379 3.7968 5.3957 23.5474 4.7526 -3.5117z"/>
   <polygon class="fil2" points="66.7918,29.9482 73.3834,16.699 62.4674,8.2089 69.2677,6.6819 75.851,11.8597 79.6201,4.3572 86.3884,2.8369 80.0758,15.1306 92.0313,24.2806 85.0778,25.841 77.6973,20.081 73.5234,28.436 "/>
   <path class="fil2" d="M37.7395 129.2128c0.0278,-0.0052 9.5934,-2.2913 30.8642,7.02 0.3559,0.127 4.1795,1.4715 6.9664,1.8688 -0.06,-0.1841 -0.2739,-0.5248 -0.8902,-1.1395 -0.5451,-0.5469 -1.0909,-1.0921 0,-2.1833 1.0926,-1.0915 1.6389,-0.5468 2.1836,0 4.4438,4.4427 -0.0773,6.3559 -0.0897,6.3632l-0.7429 0.1328c-3.2563,-0.2702 -8.491,-2.1518 -8.5054,-2.1548l-0.0911 -0.0373c-20.3809,-8.9326 -29.0182,-6.8572 -29.0431,-6.854 -0.7544,0.1679 -1.5095,0.332 -1.8345,-1.1758 -0.3247,-1.5097 0.4293,-1.6738 1.183,-1.8401zm45.5447 -33.6107l0 0c0.5897,-0.1752 0.8113,-0.4679 0.8724,-0.8098 0.1888,-0.2974 0.2233,-0.668 -0.1008,-1.2085l-0.909 -5.7537 4.4488 3.2339c-2.1072,4.8826 -0.0921,6.9836 0.5766,7.5148l-0.0131 -0.0105c1.1553,0.9772 1.5965,2.6703 1.6656,2.9668 1.2506,7.1792 -0.7297,8.6749 -0.7344,8.6786l-0.2049 0.2043c-1.6997,1.9823 -4.235,8.1198 -4.2429,8.1381l-0.0955 0.3193c-0.5272,2.9799 -3.7804,2.7096 -3.7893,2.7096l-0.3857 0.0315c-4.1813,0.8123 -6.2643,1.7763 -6.7846,2.0398 -3.6584,1.6081 -5.935,0.3205 -5.9414,0.3174l-0.4531 -0.17c-2.0692,-0.4134 -2.8403,-0.9875 -3.0729,-1.2106 -1.4659,-3.7986 -3.8722,-5.2477 -4.7635,-5.6733 -2.8451,-2.4862 -1.3828,-5.0499 -1.0654,-5.5326 0.722,-0.792 2.4288,-3.3483 3.2532,-4.6009l1.6149 0c0.7711,0 1.5447,0 1.5447,-1.5437 0,-1.5443 -0.7736,-1.5443 -1.5447,-1.5443l-2.0531 0c-0.4924,-0.2215 -0.8286,-0.1752 -1.0889,0l-1.3629 0c-0.7711,0 -1.5432,0 -1.5432,1.5443 0,1.011 0.331,1.3613 0.7768,1.4815 -0.7449,1.1032 -1.5457,2.2506 -1.8694,2.5747l-0.1447 0.1737c-0.011,0.0162 -3.9643,5.2878 1.6686,9.954l0.5009 0.2777c0.0061,0.0026 1.9937,0.6654 3.2825,4.2062l0.187 0.3623c0.0033,0.0043 1.217,1.7361 4.8942,2.5203 0.9253,0.4146 4.1646,1.5636 8.4408,-0.3221l0.1511 -0.0778c0.0046,-0.0031 1.5271,-0.8715 5.7542,-1.711 1.0099,0.0272 5.8143,-0.105 6.8011,-5.1128 0.379,-0.9017 2.3433,-5.5137 3.602,-7.0652 0.6189,-0.6049 3.0923,-3.5783 1.7063,-11.5184l-0.013 -0.0591c0,-0.0079 -0.619,-2.9511 -2.6992,-4.7112l-0.211 -0.1506c-0.0028,-0.0027 -1.1621,-0.6644 0.9232,-4.6903 0.3241,-0.4751 0.4154,-0.8301 0.3695,-1.1145 -0.0329,-0.3289 -0.261,-0.6623 -0.8725,-1.0011l-8.4072 -6.1139 -2.4246 1.4847 1.414 8.9572c-0.9441,0.9018 -2.5731,2.6937 -3.1717,4.811 -1.0298,0.4835 -3.248,1.4135 -5.8555,1.848 -0.7613,0.128 -1.5218,0.255 -1.2692,1.7732 0.2534,1.5208 1.015,1.3927 1.7763,1.2684 4.1147,-0.6864 7.4166,-2.4754 7.4259,-2.4816l0.6897 -0.368 0.1071 -0.7815c0.2437,-1.7937 1.9803,-3.4728 2.64,-4.0542zm39.4605 56.9484l0 0 0 0.0069c0.0031,0.103 0.0435,1.1579 0.1259,1.0816l0.0367 -0.0277c0.0067,-0.0063 2.4873,-2.0498 3.4529,-11.3348l0.0298 -0.1887c0.0068,-0.0252 2.1103,-9.3708 9.3485,-0.4187 0.4751,0.484 4.6545,4.6615 4.8835,1.0978 -0.4978,-1.4905 -2.8266,-8.4576 -3.3042,-9.8053 -0.4845,-0.8427 -3.3664,-6.4494 5.6074,-6.6156l0.1085 0c0.016,0 5.606,0.2671 11.508,2.4114 0.7241,0.2641 1.4506,0.5276 0.926,1.9756 -0.5258,1.4475 -1.2512,1.1856 -1.9752,0.9206 -5.1605,-1.8741 -10.111,-2.1904 -10.5901,-2.2176 -4.1246,0.0978 -2.8813,2.0222 -2.8786,2.0258l0.1203 0.2666c0.4351,1.1621 3.4824,10.318 3.4917,10.3427l0.0856 0.5133c-0.1901,11.7603 -10.2187,1.2013 -10.2484,1.1725l-0.0909 -0.1014c-2.9945,-3.7284 -3.8455,-1.3823 -3.9721,-0.9473 -1.1076,10.433 -4.5021,13.2445 -4.5139,13.253l0.0382 -0.0289c-4.1437,3.7284 -5.0395,-0.8348 -5.2289,-2.6247 -0.0461,-0.2055 -0.0492,-0.4314 -0.0492,-0.6582l0 -0.0037c-0.0067,-0.1704 -0.0115,-0.3387 0,-0.5013l0 -8.0392c0,-6.4438 -2.4789,-4.4441 -2.8653,-4.0939 -8.7742,9.6657 -13.6728,25.1095 -13.6858,25.1533 -0.2367,0.7356 -0.4715,1.4705 -1.9385,1.0002 -1.4654,-0.47 -1.2286,-1.2056 -0.9939,-1.9401 0.0148,-0.0471 5.119,-16.15 14.3522,-26.3061l0.0661 -0.067c0.024,-0.0209 8.0475,-8.0241 8.1495,5.9858 0.0037,0.0883 0.0037,0.1772 0.0037,0.2677l0 8.4453 0.0005 0zm-5.9846 -12.511l0 0c-0.0131,0.0131 -0.02,0.0214 -0.02,0.0214l0.02 -0.0214zm12.6333 2.7299l0 0c0,0.0043 0,0.0068 0,0.0068l0 -0.0068zm-62.2503 -66.2358l0 0c-0.0048,0.0057 -1.8837,2.1193 -0.9477,2.1956 0.9324,-0.092 6.4871,-0.4517 6.4871,4.1205l0 -0.126c0.0015,0.0147 0.6116,5.761 -5.6497,4.1953l-0.5129 -0.23c-0.001,0 -0.4428,-0.3204 -0.2968,3.0541 0.0213,0.1558 0.0244,0.3194 0.0249,0.4846l0.0006 0.0068c0.0109,0.2169 0.023,0.4323 0,0.6335l0 5.3452c1.1758,1.5371 4.2229,6.256 -2.7352,6.2138 -0.2169,0.0366 -0.4533,0.0137 -0.6926,-0.0183 -0.2755,-0.0125 -0.5506,-0.0251 -0.7868,-0.1082l-3.0681 -0.425c-0.7643,-0.1025 -1.5299,-0.2095 -1.3241,-1.7351 0.2048,-1.527 0.9696,-1.4209 1.7339,-1.3158l3.6091 0.4966c1.3561,0.056 1.1391,-0.6702 0.8544,-1.1512 -0.4575,-0.1668 -0.6074,-0.4887 -0.6561,-0.8615 -0.2128,-0.3252 -0.3054,-0.6807 -0.0231,-1.1334l0 -5.7849c-0.4829,-8.8621 3.6892,-7.0727 4.8435,-6.4145 1.7404,0.3341 1.5915,-0.9958 1.5915,-1.0001l0 -0.126c0,-1.4512 -3.1498,-1.0434 -3.1592,-1.0418l-0.1872 0.011c-7.9484,0 -1.4276,-7.3042 -1.4087,-7.3252 0.5117,-0.5771 1.0245,-1.1548 2.1756,-0.1353 1.1529,1.0199 0.6394,1.5986 0.1277,2.1753zm-8.9657 -1.3797l0 0c0.5295,0.5614 1.0576,1.1239 2.1785,0.07 1.1224,-1.0565 0.5929,-1.619 0.0639,-2.181 -0.0058,-0.0068 -2.295,-2.4242 -2.4435,-2.7206 -0.0931,-0.1877 -0.0931,0.0449 -0.0931,0.0444l-0.3142 -0.9294c-0.002,-0.0006 -0.5259,-0.6492 2.4478,-0.3848 1.8651,0.5746 24.4349,8.0351 59.3238,42.5579l0.013 0.011c0.0031,0.0053 1.5531,1.4957 -0.6008,2.1638 -0.6921,0.1564 -6.0631,1.5662 -5.1283,7.6425l0.4036 0.8264c0.0026,0.0022 0.5158,0.537 -1.9175,1.1705 -0.5794,0.0942 -4.0051,0.6713 -6.0413,1.5151 -0.1511,-0.081 -0.505,-0.5772 -0.3215,-3.4911 0.268,-0.9777 1.1359,-4.8357 -1.0833,-7.747 -1.1489,-1.5087 -2.4508,-1.7859 -3.6077,-2.0284 -0.6408,-0.1365 -1.1588,-0.2462 -0.976,-2.1706l0.0136 -0.1448c0,-0.0016 0,-1.2568 0.3995,-2.2568 0.2868,-0.7152 0.5729,-1.4323 -0.857,-2.0068 -1.4286,-0.5721 -1.7157,0.1453 -2.0018,0.8604 -0.6051,1.5124 -0.6292,3.259 -0.6292,3.397 -0.3978,4.5325 1.31,4.8921 3.4246,5.3376 0.6247,0.1317 1.3257,0.2797 1.7858,0.8819 1.5615,2.0508 0.5326,5.1357 0.5312,5.1451l-0.0789 0.3795c-0.5186,7.7764 3.9834,6.9027 3.9971,6.9007l0.3863 -0.1272c1.7126,-0.7997 5.6396,-1.417 5.6502,-1.4197l0.1265 -0.023c6.0709,-1.5558 4.6177,-4.6616 3.8041,-5.8279 -0.269,-3.2271 2.8126,-3.8079 2.8205,-3.8105l0.1219 -0.0298c7.2984,-2.1712 1.9405,-7.3299 1.9264,-7.3445l0.0125 0.0121c-36.9596,-36.5707 -60.6753,-43.3478 -60.7442,-43.3683l-0.2963 -0.0538c-9.0796,-0.8731 -6.2727,3.9657 -5.5221,5.0704 0.0605,0.1788 0.1453,0.3873 0.2643,0.6241 0.3672,0.7324 2.9544,3.4487 2.9616,3.4555zm36.9722 45.922l0 0c0.1983,-0.7464 0.3978,-1.4931 -1.0909,-1.8851 -1.49,-0.3916 -1.6895,0.3543 -1.8878,1.1004 -0.0053,0.0183 -1.7252,6.5279 -3.2814,9.2076 -0.8193,1.1308 -10.612,14.8949 4.3597,6.7559 0.5887,-0.2305 4.8591,-1.8626 7.5477,-2.1994 0.7649,-0.0956 1.5314,-0.1919 1.3446,-1.7225 -0.1875,-1.5333 -0.9535,-1.437 -1.7193,-1.3419 -3.2887,0.4108 -8.3255,2.4021 -8.3402,2.4073l-0.1872 0.091c-3.543,1.9357 -0.4757,-2.2301 -0.4665,-2.2416l0.0837 -0.1272c1.7811,-3.0147 3.6321,-10.0252 3.6374,-10.0445zm40.3802 -81.2737l0 0c3.564,0.9824 18.324,6.3476 18.324,27.8614l0 -0.0173c0.0015,0.0926 0.8138,32.5442 -29.5329,32.5442l0.1144 0c-0.0402,0.0027 -13.9283,1.2526 -20.8361,-14.8336l-0.0497 -0.1391c-0.0095,-0.0308 -3.5234,-11.168 -9.4209,-11.0874l-0.3445 -0.0356c-0.004,-0.0021 -1.7041,-0.4146 -4.2046,1.6169 -0.5987,0.4851 -1.1967,0.9734 -2.1686,-0.2215 -0.9712,-1.1946 -0.3721,-1.6819 0.227,-2.1681 3.1299,-2.5428 5.8503,-2.3838 6.5962,-2.2788 7.6633,0.0403 11.7781,11.8142 12.2106,13.1149 6.026,14.0039 17.7268,12.9454 17.7617,12.9422l0.1156 0c27.1764,0 26.4457,-29.3349 26.4457,-29.419l0 -0.0178c0,-17.373 -10.4349,-22.9298 -14.7682,-24.4902l0 9.3172c7.9935,5.8362 8.2037,12.4749 8.2037,12.4943 0.0375,0.771 0.0749,1.5427 -1.4695,1.6154 -1.5455,0.0715 -1.5817,-0.699 -1.6179,-1.47 -0.0013,-0.0158 -0.162,-5.3496 -7.1953,-10.3406 -0.6099,-0.0998 -0.8516,-0.3826 -0.9489,-0.7412 -0.2256,-0.2757 -0.312,-0.629 -0.0617,-1.1696l0 -11.0892c-0.0491,-0.2047 -0.0538,-0.4671 0,-0.8043 0.0038,-0.4724 0.0399,-0.9261 0.4706,-1.1858 0.3305,-0.3506 0.7689,-0.3064 1.2177,-0.2194 0.4296,0.0147 0.7253,0.0963 0.9314,0.2221zm-29.0527 44.459l0 0 0.0058 0.0156c-0.0011,-0.0015 -0.0032,-0.0062 -0.0058,-0.0156zm-45.728 -1.3875l0 0c-0.0131,0.0193 -4.4483,7.3742 -4.9104,8.5269l-0.2175 0.3806c-0.0031,0.0041 -1.261,1.6039 0.3577,1.9076l0.4044 0.1333c0.0017,0.0016 0.7033,0.3518 1.8862,0.3518 0.7721,0 1.5444,0 1.5444,1.5441 0,1.5453 -0.7717,1.5453 -1.5444,1.5453 -1.4595,0 -2.5939,-0.3979 -3.0461,-0.5844 -5.6878,-1.1773 -2.8121,-5.7034 -2.1512,-6.6344 0.8501,-1.8297 5.0218,-8.7425 5.0347,-8.7634 0.398,-0.6598 0.7957,-1.3226 2.1167,-0.5269 1.3222,0.7967 0.9244,1.4574 0.5255,2.1193zm-5.7381 13.7113l0 0c-0.0004,0 -0.0026,0 -0.0026,0l0.0026 0zm34.821 4.9721l0 0 0.0032 0.0189c0,0 -0.0016,-0.0058 -0.0032,-0.0189zm-1.4652 -2.8418l0 0c0.0031,0.002 0.0046,0.002 0.0042,0.0025l-0.0042 -0.0025zm-21.3961 -36.843l0 0c-0.7722,0.0099 -1.5444,0.0198 -1.5282,1.563 0.0188,1.5453 0.791,1.5338 1.5625,1.5255 0.0189,0 6.3241,-0.0026 19.9308,-8.8432l0.0486 -0.0304c0.042,-0.0282 14.3381,-10.1194 25.4356,-10.2346 0.3686,0.0094 7.7632,0.2623 12.5691,3.5813 0.6351,0.439 1.2703,0.8779 2.1448,-0.3895 0.8742,-1.266 0.2386,-1.7049 -0.3958,-2.1439 -5.6964,-3.9347 -14.2247,-4.138 -14.2481,-4.1394l-0.055 0c-12.0605,0.1004 -27.1794,10.7747 -27.2234,10.8041l0.0483 -0.0295c-12.8368,8.3401 -18.2742,8.3365 -18.2893,8.3365zm60.4095 63.0585l0 0c0.769,-0.0679 1.5385,-0.1396 1.4059,-1.6833 -0.1328,-1.5448 -0.9018,-1.4747 -1.6714,-1.4067 -0.0183,0.0015 -6.5587,0.4904 -6.5587,6.693l0 0.054c0,0.0151 0.1736,5.6396 6.5293,5.7337 1.0639,0.2138 5.0528,0.5704 7.2661,-5.3788 0.2698,-0.7236 0.5402,-1.448 -0.9022,-1.986 -1.4413,-0.5359 -1.7109,0.1892 -1.9803,0.9117 -1.5511,4.168 -3.7865,3.4346 -3.7922,3.4335l-0.4281 -0.0679c-3.3601,0 -3.5889,-2.5014 -3.6025,-2.7362 0.0272,-3.2867 3.7231,-3.5669 3.7341,-3.5669zm-57.7899 22.8018l0 0c0.0272,0.0047 9.2765,1.4754 10.4161,13.8651 0.07,0.7684 0.1407,1.5364 -1.3912,1.6748 -1.5321,0.1402 -1.6027,-0.6303 -1.6729,-1.3984 -0.9205,-10.0033 -7.8394,-11.0984 -7.8586,-11.1016 -0.7607,-0.1292 -1.5225,-0.2583 -1.2684,-1.7791 0.2535,-1.5196 1.0141,-1.3901 1.7749,-1.261z"/>
  </g>
 </g>
</svg>
