<?xml version="1.0" encoding="UTF-8" standalone="no"?><svg xml:space="preserve" width="385.686" height="489.817" xmlns:xlink="http://www.w3.org/1999/xlink" xmlns="http://www.w3.org/2000/svg"><path fill="#132e52" d="M192.843 104.132c106.506 0 192.843 86.337 192.843 192.843 0 106.499-86.337 192.842-192.843 192.842C86.33 489.817 0 403.474 0 296.975c0-106.506 86.33-192.843 192.843-192.843Z"/><path fill="#f8ec24" d="M192.843 110.25c103.123 0 186.715 83.598 186.715 186.721S295.966 483.68 192.843 483.68C89.71 483.68 6.128 400.098 6.128 296.97c0-103.126 83.582-186.722 186.715-186.722z"/><path fill="#132e52" d="M192.843 128.622c92.974 0 168.35 75.362 168.35 168.35 0 92.973-75.376 168.349-168.35 168.349-92.98 0-168.35-75.376-168.35-168.35 0-92.987 75.37-168.35 168.35-168.35Z"/><g transform="matrix(3.39667 0 0 3.39667 -38.131 -36.015)"><defs><path id="a" d="M68 48.47c27.372 0 49.563 22.187 49.563 49.563 0 27.372-22.191 49.563-49.563 49.563-27.374 0-49.563-22.191-49.563-49.563C18.437 70.657 40.626 48.47 68 48.47Z"/></defs><clipPath id="b"><use xlink:href="#a" overflow="visible"/></clipPath><path clip-path="url(#b)" fill="#da2928" d="M57.679 177.338v-68.984h-68.983V87.713h68.983V18.729h20.642v68.984h68.983v20.641H78.321v68.984z"/></g><path fill="#f8ec24" d="M190.088 158.747h24.072v9.844h-24.133v16.405h-10.764v-16.338h-7.741v-9.928h7.84l-.014-1.532c0-.815.068-1.644.2-2.446.629-3.756 2.687-6.739 5.544-8.766 3.814-2.7 8.685-3.51 13.12-3.51h15.89v10.317h-17.669c-1.729 0-3.352.801-4.599 2.133-.764.808-1.743 2.29-1.743 3.515v.306z"/><path fill="#132e52" d="M196.433 151.23h16.277v-7.197h-14.497c-12.255 0-17.496 6.314-17.476 13.165l.014 3.091h-7.84v6.814h7.741v16.338h7.982v-16.413h24.134v-6.725h-24.07v-1.862c0-2.799 3.241-7.21 7.735-7.21z"/><path fill="#f8ec24" d="M174.304 431.133c-.082-5.91 1.6-11.746 5.7-16.144 2.917-3.135 7.197-5.537 11.565-5.537h19.555v10.577h-19.195c-1.318 0-2.476 1.767-2.992 2.782-1.233 2.425-1.675 5.476-1.617 8.183v.067c-.089 3.18.312 7.07 2.14 9.793.628.941 1.946 2.303 3.186 2.303h18.77v10.578h-21.134c-4.504 0-8.604-2.65-11.328-6.104-3.655-4.647-4.95-10.656-4.65-16.498z"/><path fill="#132e52" d="M191.93 418.477h17.645v-7.466h-18.006c-6.637 0-15.934 6.719-15.703 20.153-.716 13.345 7.429 21.022 14.416 21.022h19.568v-7.46h-17.208c-2.513 0-7.136-3.427-6.881-13.698-.146-7.062 2.863-12.55 6.168-12.55z"/><path fill="none" d="m331.414 302.44-10.57.061v5.605l10.57.013c1.317 0 2.632-.441 3.053-1.81.268-.866.088-1.841-.418-2.575-.608-.897-1.555-1.294-2.635-1.294z"/><path fill="#f8ec24" d="M342.942 297.138c3.746-3.292 5.513-7.704 3.988-12.979-1.512-5.214-5.34-8.23-10.683-8.485l-.03-.007-27.486-.33v10.446h22.683c2.513 0 3.186 4.436 1.698 6.052-.455.486-1.04.666-1.698.666h-10.57v-4.949h-12.171v31.053h28.787l.193-.044c6.383-1.661 9.793-5.73 9.935-12.419.092-4.083-1.542-7.075-4.646-9.004zm-5.67 19.904h-27.044v-27.954h9.06v4.959h12.126c5.774 0 5.013-9.837 0-9.837h-21.118v-7.316l25.876.312c3.957.194 7.741 2.14 9.263 7.36 1.661 5.73-1.094 9.973-5.431 12.86 3.933 1.488 6.134 4.199 6.036 8.672-.143 6.396-3.492 9.575-8.767 10.944z"/><path fill="#f8ec24" d="m331.414 300.877-12.127.062v8.722h12.127c6.718 0 5.883-8.814 0-8.784zm3.053 5.432c-.418 1.369-1.736 1.81-3.053 1.81l-10.57-.013V302.5l10.57-.061c1.076 0 2.027.397 2.632 1.294.51.734.69 1.705.421 2.575z"/><path fill="#132e52" d="M340.004 297.43c4.337-2.887 7.092-7.13 5.431-12.86-1.518-5.22-5.302-7.167-9.263-7.36l-25.876-.313v7.316h21.118c5.013 0 5.774 9.837 0 9.837h-12.127v-4.959h-9.059v27.955h27.045c5.275-1.37 8.624-4.549 8.767-10.944.098-4.477-2.103-7.184-6.036-8.672zm-8.59 12.231h-12.127v-8.722l12.127-.062c5.883-.03 6.718 8.784 0 8.784z"/><path fill="#f8ec24" d="M68.063 291.886H54.058c-2.102 0-3.808-1.032-3.509-3.291.112-.734.449-1.48 1.01-1.96.41-.367.92-.547 1.473-.547l24.748-.023v-10.316H48.695c-3.298 0-6.539 1.362-8.934 3.644-2.639 2.514-4.031 5.924-4.008 9.569-.193 7.428 6.179 12.83 13.363 12.83h12.836c1.331 0 2.677.39 3.546 1.45.615.747.914 1.759.673 2.693-.405 1.644-2.096 2.14-3.608 2.14H38.294v10.115H68.75c2.432 0 4.765-.621 6.725-2.078 3.522-2.602 4.817-7.018 4.983-11.223v-.044c.092-7.724-4.524-12.959-12.394-12.959zm.69 24.752h-28.9v-7h22.71c7.497 0 6.644-9.403-.614-9.403H49.113c-6.495 0-11.984-4.847-11.804-11.26-.075-7 5.67-11.67 11.386-11.67h27.53v7.21l-23.193.014c-4.945.007-6.222 8.91 1.026 8.91h14.005c6.956 0 10.923 4.49 10.838 11.392-.268 7.238-3.933 11.807-10.149 11.807z"/><path fill="#132e52" d="M68.063 293.442H54.058c-7.248 0-5.971-8.903-1.026-8.91l23.193-.013v-7.211h-27.53c-5.717 0-11.46 4.667-11.386 11.67-.18 6.41 5.312 11.26 11.804 11.26h12.836c7.255 0 8.107 9.403.614 9.403h-22.71v7h28.9c6.215 0 9.88-4.572 10.152-11.803.081-6.909-3.883-11.396-10.842-11.396z"/><path fill="#f8ec24" d="M266.313 370.445 88.939 296.97l177.374-73.47-73.47 177.375-73.47-177.375 177.374 73.47-177.374 73.474 73.47-177.378z"/><path fill="#132e52" d="m281.207 76.83-76.843-33.274 76.843-30.374-31.786 76.826-31.891-76.826 76.843 30.374-76.843 33.273L249.42 0z"/><path fill="#f8ec24" d="m275.015 70.654-61.897-26.817 61.897-24.48-25.604 61.919-25.689-61.918 61.898 24.48-61.898 26.816 25.689-61.921z"/><path fill="#132e52" d="M172.446 76.83 95.603 43.555l76.843-30.374-31.786 76.826-31.892-76.826 76.843 30.374-76.843 33.273L140.66 0z"/><path fill="#f8ec24" d="m166.254 70.654-61.898-26.817 61.898-24.48-25.605 61.919-25.689-61.918 61.901 24.48-61.9 26.816 25.688-61.921z"/></svg>