<?xml version="1.0" encoding="utf-8"?>
<!-- Generator: Adobe Illustrator 13.0.0, SVG Export Plug-In . SVG Version: 6.00 Build 14948)  -->
<!DOCTYPE svg PUBLIC "-//W3C//DTD SVG 1.0//EN" "http://www.w3.org/TR/2001/REC-SVG-20010904/DTD/svg10.dtd">
<svg version="1.0" id="Ebene_1" xmlns="http://www.w3.org/2000/svg" xmlns:xlink="http://www.w3.org/1999/xlink" x="0px" y="0px"
	 width="527.162px" height="527.244px" viewBox="0 0 527.162 527.244" enable-background="new 0 0 527.162 527.244"
	 xml:space="preserve">
<path fill-rule="evenodd" clip-rule="evenodd" fill="#3E4549" d="M263.54,527.244c145.222,0,263.622-118.4,263.622-263.622
	C527.162,118.482,408.762,0,263.54,0C118.4,0,0,118.482,0,263.622C0,408.844,118.4,527.244,263.54,527.244L263.54,527.244z"/>
<path fill-rule="evenodd" clip-rule="evenodd" fill="#FFFFFF" d="M263.54,519.231c140.804,0,255.609-114.885,255.609-255.609
	S404.344,8.095,263.54,8.095C122.817,8.095,8.013,122.897,8.013,263.622S122.817,519.231,263.54,519.231L263.54,519.231z"/>
<path fill-rule="evenodd" clip-rule="evenodd" fill="#3E4549" d="M263.54,437.3c95.669,0,173.678-78.091,173.678-173.678
	c0-95.588-78.009-173.596-173.678-173.596c-95.587,0-173.594,78.007-173.594,173.596C89.946,359.209,167.953,437.3,263.54,437.3
	L263.54,437.3z"/>
<path fill-rule="evenodd" clip-rule="evenodd" fill="#E20025" d="M117.174,186.595c27.229-51.513,80.87-87.082,142.686-88.474
	c-18.315,24.614-41.048,46.69-67.131,62.719c-15.7,9.565-32.544,17.007-50.372,21.504
	C134.019,184.469,125.678,185.779,117.174,186.595L117.174,186.595z"/>
<path fill-rule="evenodd" clip-rule="evenodd" fill="#E20025" d="M239.663,427.485c-79.887-11.692-141.623-80.786-141.623-163.863
	c0-22.731,4.661-44.483,13-64.27c0.246,3.926,0.492,7.85,0.901,11.692c4.088,40.721,18.97,82.422,41.619,120.444
	C175.721,368.449,205.321,401.892,239.663,427.485L239.663,427.485z"/>
<path fill-rule="evenodd" clip-rule="evenodd" fill="#E20025" d="M416.121,199.352c8.341,19.787,12.999,41.539,12.999,64.27
	c0,83.077-61.734,152.171-141.621,163.863c34.342-25.594,63.943-59.036,86.101-95.997c22.978-38.511,37.942-80.868,41.783-122.079
	C415.711,206.057,415.957,202.704,416.121,199.352L416.121,199.352z"/>
<path fill-rule="evenodd" clip-rule="evenodd" fill="#E20025" d="M267.22,98.121c61.898,1.392,115.538,36.961,142.767,88.474
	c-7.031-0.653-14.063-1.715-21.097-3.27c-19.298-4.334-37.611-12.185-54.454-22.485C308.35,144.812,285.618,122.735,267.22,98.121
	L267.22,98.121z"/>
<path fill-rule="evenodd" clip-rule="evenodd" fill="#163962" d="M139.17,187.087h248.823
	c-19.708-4.415-38.353-12.429-55.521-22.978c-26.821-16.436-50.209-39.167-68.933-64.516
	c-18.643,25.349-41.947,48.081-68.849,64.516C177.52,174.658,158.877,182.672,139.17,187.087L139.17,187.087z"/>
<path fill-rule="evenodd" clip-rule="evenodd" fill="#163962" d="M178.664,279.894H132.71c6.542,16.928,14.637,33.606,24.204,49.553
	c23.058,38.593,54.294,73.266,90.681,98.938c2.372,0.246,4.66,0.41,7.033,0.574c1.307-7.934,0.653-44.566,0.409-46.283
	c-1.636-1.881-3.271-3.023-5.152-3.762c-2.045-0.735-4.497-1.061-7.523-1.143c-2.861,0-5.232,0.246-7.522,0.735
	c-2.29,0.407-4.661,1.146-7.522,2.127c-2.618,0.817-4.743,1.635-7.033,1.635c-2.454,0-4.742-0.899-7.359-3.434
	c-0.491-0.41-0.899-0.817-1.39-1.31c-1.963-1.963-3.926-3.926-6.132-3.926c-2.7,0.082-5.152-0.243-7.359-0.899
	c-2.208-0.653-4.252-1.799-5.969-3.352c-3.844-3.68-3.844-8.83-3.762-13.002c0-1.796,0-3.272-0.327-3.926
	c-0.492-1.063-2.208-2.37-4.334-3.598c-2.29-1.389-4.906-2.698-6.951-3.598c-3.68-1.635-5.968-4.415-7.358-7.685
	c-1.228-3.108-1.636-6.788-1.554-10.304c0.082-1.553,0.082-3.026-0.164-4.333c-0.163-1.063-0.409-1.963-0.898-2.455l-0.082-0.079
	c-1.146-1.31-2.372-2.701-3.272-4.418c-0.98-1.796-1.633-3.923-1.633-6.457c0-2.209,0.653-4.09,1.715-5.479
	c1.31-1.717,3.19-2.701,4.907-2.701c4.088-0.161,8.095,3.762,10.63,6.381c0.245,0.161,0.409,0.407,0.652,0.571
	c1.146,1.228,2.537,2.534,3.926,3.598c1.39,0.981,2.782,1.799,4.17,2.127c2.78,0.653,4.989,0.571,6.869,0.489
	c0.082,0,0.164,0,0.328,0c3.352-0.082,5.804,0.328,7.849,1.635c2.045,1.228,3.516,3.19,4.988,6.296
	c1.635,3.272,2.944,3.272,5.316,3.272c0.817-0.082,1.635-0.082,2.616,0c5.314,0.246,6.623,2.698,8.75,6.703
	c0.327,0.656,0.653,1.31,1.062,1.881c0.819,1.474,1.554,2.616,2.372,3.598c0.737,0.82,1.39,1.392,1.963,1.799
	c0.899,0.492,1.717,0.656,2.698,0.899c1.636,0.328,3.516,0.738,6.46,2.619c1.799,1.146,3.025,2.78,3.924,4.658
	c0.819,1.799,1.31,3.765,1.717,5.725c0.901,3.926,1.554,7.441,2.944,10.058c1.308,2.537,3.353,4.497,7.113,5.889
	c0-0.41,0.082-0.82,0.082-1.392c0.653-12.264,0.899-20.033,0.246-25.184c-0.491-4.661-1.799-7.031-4.252-8.669
	c-7.522-5.232-15.372-10.465-22.569-15.208c-7.113-4.497-13.654-8.505-18.807-11.039c-0.898-0.164-1.879-0.325-2.861-0.407
	c-1.144-0.082-2.125-0.082-3.107-0.164c-0.409,0-0.655,0-0.981,0c-4.824-0.082-9.322-0.246-14.31-3.68
	c-2.943-2.045-5.068-4.418-6.214-7.031c-1.063-2.537-1.146-5.314,0.164-7.934c0.245-0.489,0.491-0.817,0.653-1.143
	c0.491-0.981,0.735-1.392-0.082-2.209c-1.308-1.228-2.698-2.862-3.598-4.661C178.909,280.547,178.746,280.222,178.664,279.894
	L178.664,279.894z"/>
<path fill-rule="evenodd" clip-rule="evenodd" fill="#163962" d="M244.897,279.894h-43.175c1.063,1.392,2.618,1.717,4.254,2.127
	c1.633,0.325,3.352,0.735,5.15,1.799c1.39,0.817,2.698,1.96,3.762,3.434c1.063,1.471,1.881,3.352,2.37,5.561
	c0.164,0.817,0.246,1.307,0.328,1.799c0.327,1.799,0.571,3.026,2.78,4.74c8.177,6.053,16.107,11.203,23.303,15.946
	c5.152,3.27,9.895,6.378,14.065,9.404l-0.082-0.082c0.082,0,0.164,0.082,0.245,0.082c0.082-0.899,0-2.045-0.163-3.27
	c-0.246-1.474-0.573-3.108-0.899-4.418c-6.133-7.359-9.977-12.428-12.265-16.761c-2.454-4.743-3.108-8.587-2.698-13.409
	c0.163-1.963,0.735-3.844,1.961-5.561C244.08,280.793,244.488,280.301,244.897,279.894L244.897,279.894z"/>
<path fill-rule="evenodd" clip-rule="evenodd" fill="#163962" d="M331.409,279.894H281.2c-0.732,0.899-1.471,1.799-2.206,2.534
	c1.635,1.881,2.78,3.68,3.598,5.479c1.146,2.373,1.553,4.579,1.553,6.788c-0.082,4.579-2.124,8.584-4.986,12.185
	c-2.534,3.352-5.725,6.214-8.748,8.748c-0.246,1.228-0.41,2.78-0.41,4.251c0,1.638,0.164,3.19,0.41,4.333
	c0.079,0,0.161,0.082,0.243,0.164c0.082,0,0.164,0,0.246,0s0.082,0,0.164-0.082h0.082c0.979-0.571,3.023-1.717,5.068-2.859
	c10.058-5.646,22.078-12.349,33.771-20.854c1.063-0.817,1.717-1.635,2.209-2.616c0.407-1.061,0.571-2.288,0.571-3.762
	c0.082-2.288,0.735-4.333,1.717-5.968c1.228-2.045,2.944-3.598,4.579-4.579c2.127-1.228,4.497-1.228,6.788-1.146
	c1.963,0,3.841,0.082,4.661-1.146C330.835,280.957,331.081,280.383,331.409,279.894L331.409,279.894z"/>
<path fill-rule="evenodd" clip-rule="evenodd" fill="#163962" d="M271.471,429.041c2.698-0.164,5.396-0.328,8.095-0.656
	c36.387-25.673,67.623-60.346,90.683-98.938c9.565-15.946,17.663-32.625,24.202-49.553h-40.802
	c-0.407,0.899-0.899,1.717-1.389,2.452c-0.899,1.392-1.881,2.537-2.862,3.683c-1.635,1.96-1.717,4.658-1.717,7.274
	c0,5.071,0,10.058-8.095,13.248c-2.862,1.063-4.989,1.635-7.034,1.963c-2.042,0.41-3.926,0.41-6.46,0.489
	c-1.799,0.082-3.516,0.164-5.068,0.41c-1.556,0.243-2.944,0.653-4.336,1.553c-3.023,1.799-6.539,3.844-10.301,5.968
	c-10.547,6.053-23.224,13.412-29.109,18.563c-2.288,1.963-3.762,4.251-4.661,8.751c-0.899,4.822-1.063,12.185-0.735,24.202
	c0.082,1.471,0.082,1.963,0.082,1.963c0.161,0.079,1.063-0.41,2.124-0.899c1.966-0.981,4.254-2.619,6.053-4.254
	c1.635-1.471,2.777-2.777,2.941-3.434c0.082-0.41,0.246-1.307,0.41-2.288c1.063-5.15,2.616-12.92,6.788-15.618
	c2.045-1.389,4.251-1.717,6.539-2.045c1.474-0.164,2.944-0.407,4.172-0.899c0.571-0.164,1.146-1.635,1.799-3.352
	c1.553-4.09,3.434-9.076,10.14-9.322c0.817-0.082,1.635-0.082,2.452-0.082c3.108,0,5.643,0,7.359-3.434
	c1.553-3.108,2.859-4.989,4.743-6.217c1.881-1.307,4.169-1.635,7.523-1.553c0.325,0,0.653,0,0.896,0
	c2.455,0.082,7.28,0.246,9.814-0.325c1.881-0.41,2.452-1.063,3.352-2.127c0.492-0.571,0.984-1.146,1.717-1.881
	c0.328-0.325,0.656-0.653,0.981-0.981c2.124-2.206,3.926-4.087,7.77-4.005c1.307,0.079,2.859,0.243,4.251,0.981
	c1.635,0.896,2.78,2.452,2.78,5.232c0,1.553-0.656,3.516-1.553,5.396c-0.902,1.963-2.291,4.008-3.516,5.396l-0.082,0.082
	c-0.492,0.489-0.981,1.799-1.392,3.434c-0.489,2.045-0.817,4.333-0.735,5.889c0.082,3.516-0.082,6.703-1.063,9.483
	c-1.063,3.026-3.105,5.399-6.867,7.031c-1.392,0.656-2.944,1.146-4.333,1.638c-2.944,0.981-5.807,1.963-6.87,3.516
	c-0.41,0.571-0.571,2.534-0.817,4.743c-0.41,4.251-0.817,9.319-4.172,11.61c-1.717,1.228-3.759,1.799-6.05,2.124
	c-2.209,0.328-4.579,0.328-7.195,0.328c-1.146,0-2.291,0.571-3.516,1.31c-1.72,1.143-3.352,2.944-4.579,4.415
	c-4.907,5.968-8.912,4.169-13.901,1.963c-1.146-0.489-2.288-0.981-3.516-1.474c-1.881-0.571-3.844-1.225-5.968-1.635
	c-1.963-0.407-4.008-0.735-5.889-0.653c-3.108,0-5.807,0.246-8.095,0.981c-2.045,0.653-3.762,1.799-5.396,3.516
	c-0.492,3.105-0.41,29.027-0.328,34.424C270.817,421.271,270.981,425.115,271.471,429.041L271.471,429.041z"/>
<path fill-rule="evenodd" clip-rule="evenodd" fill="#FFED00" d="M412.523,191.011H114.64c0.327,28.047,6.214,56.829,16.598,85.039
	h46.444c0-0.164,0-0.243,0-0.325c0-0.82,0-1.635,0.164-2.373c0.409-2.291,1.472-4.008,2.943-5.15
	c1.472-1.146,3.271-1.635,5.234-1.635c0.817-0.085,1.635,0,2.454,0.164c1.799,0.325,3.598,0.817,5.314,1.799
	c1.717,0.979,3.271,2.37,4.497,4.33c0.737,1.23,1.226,2.209,1.635,3.19h45.382c-1.472-2.042-2.78-4.333-3.76-6.785
	c-1.474-3.601-2.291-7.441-1.963-11.448c0.163-2.209,0.899-4.252,2.208-6.133c0.981-1.472,2.37-2.943,4.088-4.334
	c-0.082-0.409-0.163-0.817-0.246-1.226c-1.717-7.195-3.924-16.598,9.404-25.348c0.245-4.907,0.898-8.667,2.452-11.612
	c1.718-3.352,4.251-5.641,8.259-7.113h1.308c4.008,1.472,6.867,4.006,8.587,7.686c1.635,3.271,2.206,7.44,1.878,12.429
	c11.449,11.039,7.359,19.707,5.071,24.366c1.471,1.554,2.78,3.353,3.762,5.314c1.471,2.864,2.291,5.889,2.452,8.178
	c0.246,3.924-0.981,8.259-2.862,12.185c-0.571,1.307-1.307,2.616-2.042,3.841h49.714c0.328-0.489,0.656-1.063,0.981-1.635
	c1.228-1.963,2.452-3.354,4.008-4.333c1.553-0.981,3.27-1.471,5.15-1.635c1.389-0.082,2.862,0.082,4.169,0.407
	c1.638,0.41,3.19,1.146,4.418,2.206c1.225,1.228,2.124,2.701,2.206,4.582c0,0.164,0,0.243,0,0.407h41.376
	C406.307,247.84,412.195,219.059,412.523,191.011L412.523,191.011z"/>
<path fill-rule="evenodd" clip-rule="evenodd" fill="#39A642" d="M267.384,429.123c-1.31,0.079-2.536,0.079-3.844,0.079
	c-1.553,0-3.108,0-4.579-0.079c0.164-1.881,0.246-5.643,0.327-7.523c0.164-4.579,0.164-9.814,0.164-14.476
	c0-0.814,0.082-1.553,0.082-2.288c0-4.251,0-9.158-0.082-13.491s-0.327-8.095-0.737-9.976l-0.409-0.82
	c-2.125-2.613-4.415-4.251-7.031-5.232c-2.536-0.979-5.396-1.307-8.914-1.389c-3.025-0.082-5.641,0.243-8.257,0.735
	c-2.616,0.571-5.07,1.31-8.014,2.291c-2.29,0.735-4.17,1.471-5.805,1.389c-1.472,0-2.944-0.571-4.742-2.288
	c-0.41-0.41-0.819-0.82-1.228-1.228c-2.534-2.537-5.15-5.068-8.994-5.068c-2.29,0-4.334-0.164-6.133-0.738
	c-1.717-0.489-3.189-1.307-4.497-2.534c-2.616-2.452-2.536-6.703-2.536-10.055c0-2.291,0-4.254-0.653-5.725
	c-0.899-1.802-3.189-3.601-5.807-5.232c-2.452-1.477-5.232-2.783-7.44-3.765c-2.616-1.146-4.334-3.188-5.316-5.643
	c-1.062-2.534-1.307-5.64-1.226-8.748c0-1.635,0-3.434-0.245-4.989c-0.246-1.881-0.817-3.434-2.043-4.661l0.081,0.085
	c-0.981-1.146-2.043-2.291-2.779-3.68c-0.655-1.228-1.146-2.78-1.146-4.579c0-1.31,0.409-2.37,0.98-3.108
	c0.573-0.735,1.31-1.228,1.963-1.228c2.372-0.082,5.643,3.108,7.77,5.232c0.245,0.249,0.407,0.41,0.571,0.656
	c1.308,1.31,2.779,2.698,4.417,3.923c1.715,1.31,3.678,2.373,5.641,2.783c3.271,0.735,5.725,0.653,7.768,0.653
	c0.082,0,0.246,0,0.327,0c2.618-0.082,4.415,0.161,5.723,0.981c1.31,0.817,2.372,2.288,3.599,4.74
	c2.698,5.481,4.825,5.481,8.83,5.399c0.655,0,1.472,0,2.373,0c3.107,0.161,4.005,1.878,5.477,4.74
	c0.327,0.574,0.655,1.146,1.146,1.963c0.899,1.635,1.879,3.026,2.78,4.09c0.98,1.228,1.961,2.124,2.943,2.698
	c1.472,0.817,2.616,1.063,3.844,1.31c1.308,0.325,2.861,0.653,5.232,2.124c1.063,0.735,1.882,1.799,2.454,3.026
	c0.653,1.471,1.146,3.188,1.472,4.822c0.899,4.336,1.553,7.934,3.27,11.124c1.718,3.349,4.417,5.968,9.24,7.685
	c2.372,0.899,3.599,0.489,4.497-0.981c0.655-0.981,0.655-2.127,0.735-3.844c0.655-12.428,0.981-20.358,0.328-25.84
	c-0.735-5.968-2.534-9.076-5.969-11.364c-7.604-5.232-15.454-10.55-22.731-15.208c-7.277-4.743-14.065-8.833-19.378-11.449
	l-0.491-0.164c-1.308-0.243-2.454-0.407-3.517-0.489c-1.062-0.082-2.208-0.164-3.271-0.164c-0.245,0-0.653,0-1.062,0
	c-4.17-0.164-8.178-0.246-12.185-3.026c-2.29-1.635-4.005-3.434-4.824-5.314c-0.653-1.553-0.735-3.188,0.082-4.743
	c0.164-0.325,0.327-0.735,0.491-1.061c1.553-2.78,2.29-4.008-0.817-6.87c-1.063-0.899-2.045-2.209-2.78-3.598
	c-0.573-1.063-0.981-2.209-0.981-3.352c0-0.574,0.081-1.146,0.164-1.635c0.163-1.31,0.735-2.209,1.472-2.701
	c0.735-0.571,1.797-0.896,2.943-0.896c0.571,0,1.144,0.079,1.717,0.164c1.39,0.243,2.78,0.65,4.088,1.307
	c1.144,0.653,2.29,1.635,3.107,3.023c0.899,1.474,1.308,2.619,1.718,3.68c0.489,1.063,0.817,2.045,1.553,3.108
	c1.881,2.944,4.252,3.516,6.869,4.087c1.308,0.328,2.698,0.574,4.008,1.392c0.98,0.574,1.879,1.31,2.534,2.373
	c0.817,1.061,1.39,2.37,1.797,4.169c0.083,0.489,0.164,1.063,0.328,1.553c0.409,2.698,0.737,4.579,4.252,7.195
	c8.095,6.053,16.189,11.285,23.549,16.028c5.07,3.352,9.813,6.375,13.901,9.319c0.653,0.41,1.226,0.738,1.799,0.902
	c0.653,0.164,1.307,0.164,1.961,0s1.226-0.574,1.636-1.228c0.245-0.328,0.327-0.653,0.491-0.981c0.407-1.553,0.325-3.516,0-5.561
	c-0.246-1.963-0.491-4.333-1.39-6.132c-6.051-7.277-9.894-12.185-12.021-16.354c-2.045-3.926-2.616-7.195-2.288-11.285
	c0.163-1.31,0.489-2.616,1.307-3.762c1.472-2.124,3.762-3.27,5.969-4.579c-3.271-3.352-6.051-6.621-7.85-11.039
	c-1.226-3.025-1.961-6.376-1.717-9.647c0.164-1.553,0.655-2.944,1.554-4.252c1.389-2.045,3.271-3.516,5.232-4.988
	c-0.817-3.762-2.043-7.441-1.881-11.284c0.164-6.951,4.989-11.202,10.548-14.719c0.082-3.924,0.246-8.423,1.963-12.019
	c1.146-2.291,2.944-3.844,5.559-4.989c2.618,1.228,4.581,3.026,5.806,5.48c1.799,3.842,1.638,8.175,1.31,12.347
	c3.844,3.514,7.523,7.768,7.685,13.327c0.082,3.924-1.881,7.113-3.352,10.63c2.209,1.717,3.762,3.352,5.068,5.887
	c1.146,2.372,1.884,4.906,2.048,6.787c0.164,3.189-0.902,6.787-2.537,10.223c-2.206,4.658-5.068,8.256-8.994,11.607
	c2.209,2.209,4.333,4.418,5.643,7.362c0.817,1.717,1.146,3.434,1.146,5.068c-0.082,3.598-1.717,6.949-4.09,9.894
	c-2.452,3.19-5.722,6.05-8.748,8.587c-1.228,1.96-1.228,4.497-1.228,6.785c0,1.963,0.164,3.926,0.572,5.396
	c0.082,0.328,0.245,0.735,0.491,0.981c0.407,0.735,1.063,1.31,1.881,1.638c0.899,0.325,1.881,0.489,2.862,0.243
	c0.325-0.079,0.735-0.243,1.063-0.489c2.288-1.31,3.68-2.045,5.068-2.862c10.14-5.643,22.403-12.513,34.178-21.097
	c1.72-1.228,2.783-2.616,3.437-4.251c0.653-1.556,0.899-3.272,0.979-5.153c0-1.553,0.492-2.941,1.146-4.087
	c0.902-1.474,2.045-2.534,3.108-3.19c1.228-0.735,3.108-0.653,4.825-0.653c3.108,0.082,6.05,0.164,8.013-2.862
	c0.735-1.146,1.307-2.127,1.963-3.352c0.571-1.063,1.307-2.291,2.127-3.68c0.896-1.474,1.799-2.452,2.777-3.108
	c0.984-0.653,2.045-0.899,3.354-0.981c1.063-0.082,2.042,0,3.026,0.246c1.061,0.243,1.96,0.735,2.698,1.31
	c0.571,0.489,0.899,1.143,0.899,1.96c0.079,0.328,0,0.738-0.082,1.146c-0.246,1.146-0.817,2.209-1.556,3.19
	c-0.653,1.063-1.635,2.206-2.534,3.27c-2.616,3.108-2.616,6.46-2.616,9.812c0,3.762,0,7.441-5.643,9.568
	c-2.616,1.063-4.497,1.553-6.296,1.881c-1.717,0.243-3.516,0.325-5.886,0.407c-1.963,0.082-3.762,0.082-5.646,0.41
	c-1.96,0.328-3.841,0.899-5.722,2.045c-2.698,1.635-6.296,3.68-10.14,5.968c-10.711,6.135-23.631,13.573-29.845,18.97
	c-2.862,2.619-4.825,5.396-5.807,10.957c-0.981,5.153-1.228,12.756-0.817,25.104c0.082,3.516,1.146,5.068,2.944,5.558
	c1.553,0.41,3.023-0.325,4.822-1.225c2.291-1.146,4.907-2.944,6.952-4.825c2.124-1.881,3.759-3.923,4.087-5.396
	c0.164-0.979,0.328-1.635,0.492-2.452c0.899-4.497,2.206-11.282,5.068-13.166c1.31-0.817,3.108-1.061,4.989-1.389
	c1.635-0.243,3.27-0.492,4.986-1.146c2.127-0.735,3.026-3.023,4.008-5.561c1.146-3.023,2.534-6.703,6.706-6.867
	c0.817-0.082,1.635-0.082,2.288-0.082c4.497,0,8.095,0,10.875-5.561c1.228-2.452,2.127-3.926,3.272-4.743h0.082
	c1.146-0.735,2.698-0.899,5.314-0.899c0.243,0,0.489,0.082,0.899,0.082c2.616,0.082,7.685,0.243,10.793-0.492
	c3.108-0.653,4.008-1.717,5.479-3.434c0.328-0.489,0.817-0.979,1.389-1.553c0.407-0.41,0.738-0.735,1.063-1.063
	c1.474-1.553,2.701-2.862,4.907-2.78c0.817,0,1.799,0.082,2.452,0.41c0.41,0.243,0.738,0.817,0.738,1.881
	c0,0.981-0.41,2.288-1.146,3.759c-0.738,1.638-1.802,3.272-2.862,4.418l0.079-0.082c-1.061,1.063-1.878,3.026-2.452,5.232
	c-0.571,2.373-0.899,5.071-0.899,6.949c0.082,3.108,0,5.889-0.735,8.095c-0.738,2.048-2.206,3.683-4.825,4.825
	c-1.146,0.571-2.616,1.063-4.005,1.474c-3.519,1.225-6.952,2.37-8.751,4.986c-1.061,1.471-1.307,3.844-1.553,6.624
	c-0.328,3.434-0.653,7.441-2.537,8.748c-1.143,0.82-2.695,1.228-4.412,1.474c-1.881,0.325-4.09,0.325-6.624,0.325
	c-1.963,0-3.844,0.738-5.643,1.963c-2.124,1.389-4.087,3.437-5.479,5.153c-3.026,3.68-5.807,2.452-9.322,0.899
	c-1.228-0.574-2.452-1.146-3.841-1.556c-1.963-0.735-4.172-1.307-6.378-1.799c-2.291-0.489-4.582-0.817-6.788-0.817
	c-3.434,0.082-6.46,0.328-9.158,1.228c-2.862,0.981-5.314,2.534-7.523,5.068l-0.407,0.817c-0.737,3.19-0.655,11.856-0.573,19.626
	c0,1.392,0,2.78,0,4.005c0,3.844,0,8.18,0.082,12.185c0,1.31,0.081,2.619,0.081,3.844
	C267.056,423.316,267.22,427.16,267.384,429.123L267.384,429.123z"/>
<path fill-rule="evenodd" clip-rule="evenodd" fill="#3E4549" d="M267.791,231.732c-1.553,2.208-2.697,4.497-3.598,6.951
	c-0.245,0.816-0.571,1.717-0.737,2.534c0,0.164-0.081,0.327-0.161,0.571c-0.246,1.228-0.41,2.454-0.492,3.762
	c-0.327,5.887,1.146,10.875,2.618,15.782c1.144,3.597,2.206,7.279,2.698,11.366c0,0.246,0,0.489,0.079,0.735
	c1.228-0.653,2.537-1.717,3.847-3.352c0.571-0.817,1.228-1.471,2.124-0.817c0.902,0.653,0.492,1.553-0.164,2.37
	c-1.799,2.373-3.759,3.844-5.643,4.497c0.085,2.862-0.079,5.968-0.489,8.833c-0.489,2.941-1.391,5.64-2.698,7.685
	c-0.653,0.899-1.635,1.635-2.452,0.981c-0.983-0.735-0.246-1.635,0.327-2.534c1.062-1.635,1.799-4.008,2.29-6.542
	c0.409-2.616,0.489-5.314,0.489-7.852c-1.226,0.082-2.452-0.161-3.516-0.571c-1.389-0.571-2.534-1.471-3.352-2.616
	c-1.226-1.471-1.881-3.434-1.717-5.396c0.082-0.899,0.409-1.717,1.471-1.474c1.146,0.164,1.063,0.902,0.981,1.884
	c0,1.225,0.41,2.452,1.146,3.431c0.655,0.738,1.471,1.392,2.454,1.802c0.735,0.246,1.471,0.407,2.371,0.328
	c-0.081-0.328-0.081-0.738-0.163-1.066c-0.409-3.923-1.472-7.438-2.536-10.956c-1.553-5.152-3.107-10.302-2.779-16.598
	c0.081-1.228,0.243-2.291,0.407-3.435c-0.571-0.491-1.062-0.981-1.553-1.635c-0.573-0.817-0.981-1.553-1.308-3.026
	c-0.164-0.653-0.246-1.553,0.898-1.799c1.063-0.245,1.392,0.573,1.556,1.226c0.243,1.063,0.489,1.554,0.898,2.046
	c0.082,0.163,0.164,0.245,0.246,0.327c0.164-0.41,0.325-0.899,0.489-1.392c0.901-2.616,2.209-4.986,3.844-7.44
	c0.326-0.573,1.063-1.063,1.882-0.491C268.283,230.342,268.198,231.16,267.791,231.732L267.791,231.732z"/>
<path fill-rule="evenodd" clip-rule="evenodd" fill="#3E4549" d="M342.281,333.205c-9.237,11.124-17.496,15.293-24.773,19.055
	c-5.889,3.023-11.121,5.722-15.864,11.692c-0.489,0.653-1.635,0.817-2.288,0.246c-0.656-0.574-0.738-1.635-0.246-2.209
	c5.15-6.542,10.711-9.404,16.925-12.592c7.034-3.601,14.883-7.688,23.798-18.316c0.489-0.571,1.553-0.735,2.288-0.164
	C342.773,331.488,342.855,332.552,342.281,333.205L342.281,333.205z"/>
<path fill-rule="evenodd" clip-rule="evenodd" fill="#3E4549" d="M188.231,327.973c8.914,11.039,16.764,15.129,23.795,18.809
	c6.132,3.27,11.612,6.132,16.68,12.674c0.491,0.653,0.655,1.635-0.245,2.291c-0.817,0.489-1.799,0.325-2.29-0.331
	c-4.579-5.968-9.813-8.748-15.618-11.774c-7.277-3.844-15.536-8.092-24.858-19.623c-0.489-0.653-0.407-1.717,0.246-2.288
	C186.596,327.155,187.74,327.319,188.231,327.973L188.231,327.973z"/>
<polygon fill-rule="evenodd" clip-rule="evenodd" fill="#3E4549" points="460.438,404.59 465.835,408.352 462.401,413.259 
	457.005,409.497 460.438,404.59 "/>
<polygon fill-rule="evenodd" clip-rule="evenodd" fill="#3E4549" points="467.309,394.778 472.705,398.54 469.269,403.447 
	463.872,399.686 467.309,394.778 "/>
<path fill-rule="evenodd" clip-rule="evenodd" fill="#3E4549" d="M452.672,410.643l-3.598,5.068l-22.324-15.618
	c-3.844-2.698-6.624-5.314-8.259-7.767c-1.717-2.455-2.452-5.396-2.288-8.669c0.161-3.27,1.553-6.785,4.169-10.547
	c2.534-3.598,5.232-6.132,8.095-7.523c2.862-1.471,5.807-1.799,8.83-1.146c3.108,0.653,6.624,2.452,10.714,5.317l22.321,15.615
	l-3.516,5.071l-22.324-15.618c-3.352-2.288-6.047-3.762-8.092-4.254c-1.966-0.489-4.008-0.243-5.889,0.656
	c-1.963,0.899-3.68,2.452-5.235,4.661c-2.613,3.762-3.595,7.031-3.023,9.894c0.574,2.78,3.27,5.804,8.095,9.24L452.672,410.643
	L452.672,410.643z"/>
<polygon fill-rule="evenodd" clip-rule="evenodd" fill="#3E4549" points="502.632,305.159 509.174,306.223 508.192,312.193 
	501.732,311.13 502.632,305.159 "/>
<polygon fill-rule="evenodd" clip-rule="evenodd" fill="#3E4549" points="504.513,293.303 511.055,294.366 510.073,300.337 
	503.61,299.273 504.513,293.303 "/>
<path fill-rule="evenodd" clip-rule="evenodd" fill="#3E4549" d="M498.299,313.992l-0.981,6.214l-26.903-4.254
	c-4.661-0.735-8.259-1.878-10.875-3.352c-2.616-1.553-4.497-3.759-5.807-6.785c-1.307-3.108-1.553-6.87-0.896-11.285
	c0.735-4.415,2.042-7.849,4.005-10.386c1.881-2.534,4.418-4.169,7.441-4.904c3.026-0.738,7.031-0.738,11.938,0.082l26.9,4.251
	l-0.979,6.132l-26.824-4.251c-4.087-0.653-7.113-0.735-9.155-0.246c-2.045,0.41-3.68,1.474-5.071,3.108
	c-1.307,1.717-2.206,3.841-2.616,6.539c-0.735,4.497-0.164,7.934,1.556,10.14c1.799,2.291,5.558,3.847,11.364,4.743L498.299,313.992
	L498.299,313.992z"/>
<polygon fill-rule="evenodd" clip-rule="evenodd" fill="#3E4549" points="455.288,242.361 502.386,240.727 502.632,246.86 
	461.092,248.331 461.83,271.553 456.27,271.717 455.288,242.361 "/>
<path fill-rule="evenodd" clip-rule="evenodd" fill="#3E4549" d="M499.034,217.668l1.471,6.051l-26.411,6.541
	c-4.579,1.144-8.423,1.554-11.367,1.228c-2.941-0.41-5.64-1.718-8.013-4.008c-2.37-2.29-4.087-5.641-5.15-10.058
	c-1.146-4.251-1.228-8.013-0.407-11.039c0.732-3.105,2.37-5.643,4.904-7.44c2.534-1.881,6.214-3.435,11.036-4.661l26.414-6.542
	l1.556,6.051l-26.414,6.542c-4.005,0.981-6.785,2.125-8.502,3.27c-1.717,1.228-2.862,2.862-3.437,4.907
	c-0.571,2.043-0.489,4.415,0.164,7.031c1.063,4.415,2.862,7.359,5.396,8.75c2.452,1.39,6.542,1.39,12.349-0.082L499.034,217.668
	L499.034,217.668z"/>
<polygon fill-rule="evenodd" clip-rule="evenodd" fill="#3E4549" points="427.321,161.492 468.943,139.333 471.885,144.812 
	451.28,155.851 482.924,165.5 486.85,172.939 460.685,164.518 445.641,195.917 441.797,188.64 454.96,162.555 444.738,159.286 
	430.266,166.972 427.321,161.492 "/>
<path fill-rule="evenodd" clip-rule="evenodd" fill="#3E4549" d="M264.602,55.356l5.969-0.081c0.082,2.37,0.574,4.333,1.474,5.887
	c0.981,1.635,2.452,2.944,4.497,4.006c2.042,1.063,4.415,1.717,7.113,1.881c2.37,0.164,4.497,0,6.378-0.573s3.27-1.472,4.251-2.616
	c0.981-1.228,1.556-2.536,1.638-4.006c0.082-1.472-0.246-2.78-1.066-3.926c-0.732-1.146-2.124-2.208-4.005-3.025
	c-1.228-0.655-3.926-1.554-8.177-2.944c-4.251-1.308-7.277-2.534-8.912-3.516c-2.127-1.39-3.762-2.944-4.743-4.743
	s-1.392-3.842-1.228-5.968c0.164-2.372,0.981-4.579,2.537-6.542c1.471-1.963,3.516-3.352,6.214-4.252
	c2.616-0.899,5.561-1.226,8.748-1.062c3.437,0.245,6.46,1.062,9.076,2.37s4.497,3.107,5.807,5.396
	c1.307,2.29,1.881,4.825,1.799,7.523l-5.968,0.082c-0.164-3.026-1.066-5.316-2.865-6.951c-1.717-1.717-4.412-2.616-8.01-2.862
	c-3.765-0.245-6.545,0.246-8.341,1.472c-1.799,1.226-2.783,2.862-2.944,4.825c-0.164,1.717,0.407,3.107,1.553,4.251
	c1.063,1.228,4.169,2.536,9.158,4.008c4.904,1.553,8.341,2.779,10.14,3.76c2.698,1.472,4.579,3.189,5.722,5.232
	c1.228,2.045,1.72,4.334,1.556,6.788c-0.246,2.534-1.063,4.824-2.698,6.949c-1.553,2.127-3.762,3.681-6.542,4.743
	c-2.78,1.063-5.807,1.472-9.158,1.228c-4.254-0.328-7.77-1.146-10.547-2.618c-2.78-1.471-4.907-3.516-6.38-6.05
	C265.175,61.408,264.521,58.465,264.602,55.356L264.602,55.356z"/>
<polygon fill-rule="evenodd" clip-rule="evenodd" fill="#3E4549" points="207.529,78.987 196.898,33.034 230.096,25.348 
	231.324,30.744 204.258,37.04 207.447,51.105 232.876,45.218 234.104,50.615 208.755,56.502 212.353,72.119 240.564,65.66 
	241.79,71.057 207.529,78.987 "/>
<path fill-rule="evenodd" clip-rule="evenodd" fill="#3E4549" d="M194.854,80.215c2.045-3.842,2.618-8.339,1.718-13.573
	l-6.378,1.062c0.817,4.008,0.573,7.359-0.819,10.222c-1.389,2.861-3.68,4.988-6.867,6.378c-2.618,1.144-5.398,1.554-8.259,1.226
	c-2.862-0.327-5.396-1.635-7.688-3.924c-2.288-2.208-4.251-5.232-5.886-8.832c-1.228-2.861-2.045-5.805-2.29-8.912
	c-0.328-3.026,0.245-5.887,1.799-8.505c1.554-2.534,3.924-4.578,7.277-6.05c2.861-1.31,5.559-1.635,8.095-1.063
	c2.534,0.653,4.988,2.208,7.359,4.906l5.07-3.762c-2.944-3.516-6.379-5.641-10.304-6.541s-8.013-0.409-12.347,1.553
	c-3.76,1.717-6.869,4.09-9.239,7.197c-2.372,3.188-3.68,6.787-3.926,10.875c-0.245,4.17,0.655,8.421,2.616,12.92
	c1.882,4.088,4.334,7.604,7.441,10.548c3.107,2.861,6.542,4.66,10.304,5.232c2.761,0.42,5.745,0.129,8.981-0.861l0.504,5.687
	c1.389-0.574,2.452-0.981,3.189-1.065c0.655-0.081,1.226,0,1.553,0.166c0.328,0.163,0.573,0.489,0.735,0.817
	c1.146,2.37-2.37,4.579-3.76,5.15c-0.571,0.246-1.472,0.655-2.78,1.146l-0.082,3.107c1.39-0.328,4.088-1.228,5.643-1.963
	c2.861-1.226,4.743-2.78,5.641-4.497c0.899-1.717,1.063-3.353,0.41-4.824c-0.491-1.063-1.308-1.8-2.536-2.208
	c-1.226-0.492-2.698-0.409-5.07,0.327l-0.237-3.025c0.135-0.059,0.267-0.105,0.401-0.164
	C189.621,87.001,192.891,84.059,194.854,80.215L194.854,80.215z"/>
<polygon fill-rule="evenodd" clip-rule="evenodd" fill="#3E4549" points="130.094,123.633 101.065,86.511 105.973,82.667 
	117.911,97.958 137.209,82.831 125.269,67.541 130.257,63.697 159.286,100.901 154.296,104.745 140.641,87.246 121.345,102.292 
	135,119.791 130.094,123.633 "/>
<polygon fill-rule="evenodd" clip-rule="evenodd" fill="#3E4549" points="140.314,427.567 155.279,416.367 149.31,434.273 
	163.783,445.148 145.711,445.148 140.314,461.666 134.918,445.148 116.93,445.148 131.32,434.273 125.433,416.367 140.314,427.567 
	"/>
<path fill-rule="evenodd" clip-rule="evenodd" fill="#3E4549" d="M299.845,459.05l-1.31-4.989l27.557-6.867l1.063,4.087
	c-1.963,3.516-3.762,8.013-5.232,13.491c-1.471,5.399-2.291,10.875-2.455,16.274c-0.161,3.841,0.164,7.931,0.899,12.182
	l-5.394,1.392c-0.738-3.352-1.063-7.605-1.063-12.677c0.082-5.068,0.817-10.055,2.042-15.044c1.228-4.986,2.783-9.322,4.743-13.002
	L299.845,459.05L299.845,459.05z"/>
<path fill-rule="evenodd" clip-rule="evenodd" fill="#3E4549" d="M202.213,492.082l-5.15-1.553l9.239-32.133l-9.321-2.783
	l1.308-4.333c5.643,1.474,8.667,1.635,12.265-2.698l3.844,1.063L202.213,492.082L202.213,492.082z"/>
<polygon fill-rule="evenodd" clip-rule="evenodd" fill="#3E4549" points="386.927,427.567 371.883,416.367 377.854,434.273 
	363.381,445.148 381.451,445.148 386.927,461.666 392.326,445.148 410.314,445.148 395.924,434.273 401.73,416.367 386.927,427.567 
	"/>
<polygon fill-rule="evenodd" clip-rule="evenodd" fill="#3E4549" points="116.193,389.136 77.517,416.203 59.282,390.117 
	63.861,386.93 78.498,407.944 90.517,399.521 77.761,381.451 82.34,378.179 95.014,396.331 112.594,384.067 116.193,389.136 "/>
<polygon fill-rule="evenodd" clip-rule="evenodd" fill="#3E4549" points="70.402,276.378 23.222,274.74 24.448,240.809 
	30.009,240.971 29.027,268.693 43.419,269.265 44.399,243.261 49.879,243.343 48.979,269.426 65.005,270 66.069,241.135 
	71.629,241.298 70.402,276.378 "/>
<polygon fill-rule="evenodd" clip-rule="evenodd" fill="#3E4549" points="77.925,320.777 31.399,328.137 30.335,321.841 
	63.044,291.586 26.493,297.393 25.594,291.504 72.12,284.063 73.1,290.44 40.393,320.695 77.026,314.892 77.925,320.777 "/>
<polygon fill-rule="evenodd" clip-rule="evenodd" fill="#3E4549" points="94.688,358.556 51.596,377.689 37.777,346.535 
	42.847,344.329 54.13,369.759 67.377,363.87 56.748,340.075 61.816,337.787 72.448,361.661 87.083,355.122 75.309,328.629 
	80.379,326.42 94.688,358.556 "/>
<path fill-rule="evenodd" clip-rule="evenodd" fill="#3E4549" d="M265.094,479.329c-0.409-5.232-0.246-9.404,0.572-12.677
	c0.734-3.188,2.125-5.807,4.088-7.685c1.963-1.881,4.497-3.026,7.688-3.272c2.37-0.161,4.415,0.082,6.296,0.899
	c1.881,0.735,3.434,2.045,4.743,3.68c1.307,1.717,2.37,3.765,3.27,6.296c0.899,2.452,1.553,5.889,1.881,10.222
	c0.492,5.15,0.328,9.322-0.492,12.595c-0.735,3.188-2.124,5.804-4.087,7.685s-4.497,3.026-7.688,3.27
	c-4.251,0.41-7.685-0.817-10.383-3.677C267.791,493.31,265.828,487.506,265.094,479.329L265.094,479.329z M270.653,478.837
	c0.656,7.195,1.881,11.856,3.762,14.065c1.881,2.288,4.09,3.27,6.542,3.023c2.452-0.161,4.415-1.553,5.886-4.087
	s1.884-7.359,1.31-14.555c-0.653-7.195-1.881-11.938-3.762-14.147c-1.963-2.206-4.087-3.188-6.624-2.941
	c-2.452,0.164-4.333,1.389-5.643,3.598C270.489,466.652,270,471.642,270.653,478.837L270.653,478.837z"/>
<path fill-rule="evenodd" clip-rule="evenodd" fill="#3E4549" d="M225.437,486.932l5.15,0.164c0.164,2.452,0.737,4.251,1.881,5.561
	c1.063,1.225,2.618,1.963,4.497,2.206c1.636,0.164,3.107,0,4.497-0.653c1.31-0.571,2.454-1.471,3.353-2.616
	c0.981-1.146,1.881-2.78,2.698-4.825c0.737-2.124,1.308-4.251,1.554-6.46c0-0.243,0.082-0.571,0.082-1.063
	c-1.228,1.556-2.862,2.783-4.825,3.601c-2.043,0.817-4.088,1.143-6.215,0.817c-3.678-0.41-6.541-2.127-8.748-4.989
	c-2.125-2.944-2.944-6.542-2.454-10.793c0.573-4.497,2.29-7.849,5.234-10.222c2.944-2.37,6.378-3.352,10.302-2.862
	c2.862,0.328,5.316,1.474,7.523,3.272c2.125,1.799,3.598,4.172,4.497,7.195c0.899,2.944,0.98,7.113,0.327,12.428
	c-0.653,5.561-1.799,9.976-3.434,13.084c-1.636,3.188-3.762,5.479-6.296,6.867c-2.618,1.471-5.561,1.963-8.751,1.553
	c-3.434-0.407-6.05-1.717-8.011-3.841C226.417,493.228,225.437,490.365,225.437,486.932L225.437,486.932z M249.64,470.332
	c0.407-3.023-0.082-5.561-1.554-7.605c-1.39-1.96-3.271-3.105-5.561-3.434c-2.372-0.243-4.579,0.492-6.542,2.209
	c-2.043,1.717-3.189,4.09-3.596,7.195c-0.328,2.78,0.245,5.15,1.717,7.031c1.471,1.963,3.434,3.108,5.887,3.434
	c2.452,0.246,4.579-0.325,6.376-1.878C248.168,475.729,249.312,473.44,249.64,470.332L249.64,470.332z"/>
<path fill-rule="evenodd" clip-rule="evenodd" fill="#3E4549" d="M100.494,159.286l-25.267-43.748l4.252-5.232l48.814,14.637
	l-4.497,5.561l-14.553-4.743l-12.429,15.374l7.849,13L100.494,159.286L100.494,159.286z M94.034,136.472l10.058-12.429
	c0,0-20.524-6.869-22.978-7.932C83.077,118.482,94.034,136.472,94.034,136.472L94.034,136.472z"/>
<path fill-rule="evenodd" clip-rule="evenodd" fill="#3E4549" d="M84.059,191.829L42.438,169.67l8.257-15.618
	c1.718-3.189,3.517-5.479,5.316-6.951c1.881-1.471,4.006-2.29,6.296-2.452c2.372-0.164,4.499,0.245,6.379,1.226
	c1.799,0.981,3.188,2.372,4.251,4.17s1.553,3.926,1.472,6.378c2.125-2.127,4.415-3.353,6.869-3.762c2.534-0.409,4.988,0,7.44,1.31
	c1.881,0.98,3.516,2.37,4.743,4.087c1.226,1.718,1.961,3.434,2.29,5.152c0.245,1.718,0.082,3.598-0.409,5.641
	c-0.491,2.046-1.472,4.417-2.862,7.115L84.059,191.829L84.059,191.829z M82.014,183.652l5.561-10.302
	c0.899-1.799,1.554-3.108,1.799-3.844c0.409-1.39,0.655-2.698,0.573-3.842c-0.082-1.146-0.491-2.209-1.228-3.353
	c-0.735-1.063-1.717-1.963-3.107-2.616c-1.471-0.817-3.107-1.146-4.661-0.981c-1.553,0.164-2.943,0.817-4.17,2.043
	c-1.226,1.146-2.534,3.026-3.924,5.725l-5.068,9.567L82.014,183.652L82.014,183.652z M62.798,173.432l4.825-8.996
	c1.308-2.37,2.043-4.252,2.288-5.479c0.328-1.635,0.246-3.025-0.407-4.251c-0.573-1.226-1.554-2.208-3.026-3.025
	c-1.389-0.737-2.78-1.063-4.17-0.981c-1.389,0.163-2.616,0.735-3.68,1.717c-1.062,1.063-2.37,3.025-3.924,6.051l-4.415,8.339
	L62.798,173.432L62.798,173.432z"/>
<path fill-rule="evenodd" clip-rule="evenodd" fill="#3E4549" d="M72.365,235.166l-45.954-10.629l4.742-20.361
	c0.899-4.088,2.045-7.113,3.353-9.076c1.308-1.881,3.189-3.271,5.561-4.088c2.372-0.819,4.825-0.899,7.359-0.328
	c3.27,0.819,5.805,2.454,7.522,5.071c1.718,2.616,2.454,6.214,2.045,10.793c1.144-1.472,2.125-2.454,3.107-3.107
	c2.045-1.472,4.497-2.616,7.277-3.68l14.31-5.07l-1.717,7.605l-10.958,3.924c-3.188,1.063-5.641,2.043-7.358,2.862
	c-1.717,0.817-3.026,1.635-3.762,2.37c-0.817,0.819-1.472,1.636-1.881,2.534c-0.328,0.655-0.655,1.718-0.981,3.353l-1.635,7.033
	l20.36,4.743L72.365,235.166L72.365,235.166z M48.079,223.147l3.026-13.084c0.653-2.779,0.899-4.988,0.653-6.705
	c-0.245-1.717-0.817-3.107-1.963-4.17c-1.062-1.146-2.288-1.881-3.841-2.208c-2.127-0.491-4.09-0.164-5.889,1.146
	c-1.717,1.226-3.025,3.598-3.844,6.949l-3.352,14.555L48.079,223.147L48.079,223.147z"/>
<path fill-rule="evenodd" clip-rule="evenodd" fill="#3E4549" d="M386.52,114.149l33.935-32.708l14.473,15.045
	c2.944,3.026,4.907,5.561,5.807,7.768c0.899,2.127,0.979,4.415,0.407,6.869c-0.653,2.452-1.881,4.499-3.762,6.378
	c-2.452,2.29-5.15,3.435-8.341,3.517c-3.188,0-6.539-1.39-10.137-4.17c0.571,1.717,0.899,3.188,0.899,4.333
	c0.079,2.452-0.246,5.15-0.899,8.095l-3.519,14.801l-5.479-5.643l2.78-11.366c0.735-3.27,1.228-5.805,1.556-7.686
	c0.246-1.881,0.246-3.434,0-4.497c-0.164-1.063-0.574-2.045-1.063-2.944c-0.328-0.571-1.146-1.471-2.209-2.616l-5.068-5.234
	l-15.047,14.556L386.52,114.149L386.52,114.149z M409.822,100.33l9.325,9.649c1.96,2.043,3.759,3.516,5.232,4.252
	c1.553,0.735,3.105,0.899,4.576,0.653c1.556-0.328,2.865-0.981,3.926-2.045c1.635-1.553,2.373-3.434,2.291-5.559
	c-0.082-2.208-1.392-4.499-3.765-7.033l-10.383-10.712L409.822,100.33L409.822,100.33z"/>
<path fill-rule="evenodd" clip-rule="evenodd" fill="#3E4549" d="M354.958,68.194c3.759-6.869,8.584-11.202,14.391-13
	c5.804-1.881,11.692-1.146,17.499,2.043c3.759,2.127,6.703,4.907,8.748,8.423s2.944,7.359,2.78,11.53
	c-0.164,4.088-1.471,8.257-3.762,12.346c-2.288,4.252-5.232,7.523-8.748,9.813c-3.516,2.372-7.277,3.598-11.285,3.598
	c-4.087-0.081-7.849-1.063-11.446-3.025c-3.844-2.208-6.87-4.989-8.833-8.587c-2.042-3.596-2.941-7.44-2.698-11.528
	C351.85,75.636,352.913,71.792,354.958,68.194L354.958,68.194z M360.516,71.383c-2.777,4.989-3.598,9.649-2.534,13.983
	c1.146,4.333,3.683,7.604,7.688,9.894c4.172,2.208,8.341,2.698,12.592,1.226c4.254-1.389,7.852-4.742,10.793-10.056
	c1.884-3.353,2.862-6.624,3.19-9.731c0.246-3.108-0.41-5.969-1.799-8.587c-1.392-2.616-3.519-4.66-6.214-6.132
	c-3.844-2.125-7.934-2.698-12.185-1.553C367.793,61.49,363.952,65.169,360.516,71.383L360.516,71.383z"/>
<path fill-rule="evenodd" clip-rule="evenodd" fill="#3E4549" d="M306.633,75.145l14.555-44.89l16.925,5.559
	c3.026,0.899,5.235,1.8,6.706,2.618c2.045,1.062,3.677,2.37,4.822,3.924c1.146,1.472,1.881,3.27,2.209,5.479
	c0.325,2.125,0.082,4.334-0.653,6.541c-1.228,3.762-3.434,6.624-6.788,8.505c-3.27,1.799-8.095,1.717-14.391-0.328l-11.528-3.76
	l-5.889,18.233L306.633,75.145L306.633,75.145z M320.203,53.559l11.613,3.76c3.844,1.228,6.788,1.39,8.83,0.491
	c2.127-0.899,3.598-2.616,4.418-5.232c0.571-1.881,0.653-3.681,0.164-5.316c-0.574-1.636-1.474-2.944-2.947-3.844
	c-0.896-0.571-2.695-1.307-5.396-2.206l-11.446-3.681L320.203,53.559L320.203,53.559z"/>
<path fill-rule="evenodd" clip-rule="evenodd" fill="#3E4549" d="M447.765,320.37l44.074,16.925l-6.378,16.518
	c-1.307,3.352-2.783,5.886-4.415,7.523c-1.72,1.717-3.68,2.78-5.971,3.188c-2.288,0.492-4.415,0.328-6.46-0.489
	c-1.881-0.735-3.519-1.881-4.743-3.516c-1.307-1.717-2.042-3.762-2.288-6.217c-1.799,2.373-3.844,3.929-6.296,4.579
	c-2.452,0.738-4.989,0.656-7.523-0.407c-2.045-0.735-3.762-1.963-5.232-3.516c-1.474-1.553-2.373-3.108-2.862-4.743
	c-0.492-1.635-0.574-3.598-0.328-5.643c0.246-2.127,0.902-4.579,1.963-7.438L447.765,320.37L447.765,320.37z M450.709,328.219
	l-4.172,10.957c-0.735,1.881-1.146,3.19-1.307,4.008c-0.246,1.471-0.328,2.698-0.082,3.841c0.164,1.146,0.735,2.13,1.553,3.19
	c0.899,0.979,1.963,1.717,3.434,2.288c1.638,0.571,3.19,0.738,4.743,0.328c1.556-0.328,2.78-1.225,3.844-2.534
	c1.063-1.228,2.127-3.352,3.27-6.135l3.844-10.137L450.709,328.219L450.709,328.219z M471.07,335.988l-3.683,9.565
	c-0.981,2.534-1.471,4.497-1.635,5.725c-0.082,1.635,0.246,3.023,0.981,4.169s1.799,2.045,3.352,2.619
	c1.474,0.571,2.862,0.735,4.254,0.407c1.392-0.243,2.534-0.981,3.434-2.127c0.899-1.143,1.963-3.272,3.188-6.46l3.434-8.748
	L471.07,335.988L471.07,335.988z"/>
</svg>
