<?xml version="1.0" encoding="utf-8"?>
<!-- Generator: Adobe Illustrator 27.6.1, SVG Export Plug-In . SVG Version: 6.00 Build 0)  -->
<svg version="1.1" id="Layer_1" xmlns="http://www.w3.org/2000/svg" xmlns:xlink="http://www.w3.org/1999/xlink" x="0px" y="0px"
	 viewBox="0 0 300.5 398.4" style="enable-background:new 0 0 300.5 398.4;" xml:space="preserve">
<style type="text/css">
	.st0{fill:#FFFFFF;}
	.st1{fill:none;stroke:#221F1F;stroke-width:0.5065;stroke-miterlimit:3.8637;}
	.st2{fill-rule:evenodd;clip-rule:evenodd;fill:#A81736;}
	.st3{fill-rule:evenodd;clip-rule:evenodd;fill:#FBB81A;}
	.st4{fill:#2B2624;}
</style>
<g>
	<path class="st0" d="M126.7,44.8"/>
	<path class="st0" d="M126.7,44.8"/>
	<path class="st0" d="M0,199.2C0,89.2,67.3,0,150.3,0c83,0,150.2,89.2,150.2,199.2c0,110-67.3,199.2-150.2,199.2
		C67.3,398.4,0,309.3,0,199.2z"/>
	<path class="st0" d="M162.3,99"/>
	<path class="st1" d="M162.3,99"/>
	<path class="st2" d="M252.9,215.2c1.8,7.7,2.7,15.7,2.7,23.9c0,57.9-46.9,104.8-104.8,104.8C93,343.9,46,297,46,239.1
		c0-57.9,46.9-104.8,104.8-104.8c28.9,0,55.1,11.7,74.1,30.6l-17,17.3c-14.6-14.9-34.6-23.8-57.1-23.8c-44.5,0-80.7,36.1-80.7,80.6
		c0,44.5,36.1,80.7,80.7,80.7c44.5,0,80.7-36.1,80.7-80.7h-30.2v-23.9L252.9,215.2z"/>
	<path class="st3" d="M133.8,130.9c-7.7-5.4-12.8-14.4-12.8-24.5c0-16.5,13.4-29.9,29.9-29.9c16.5,0,29.9,13.4,30,29.9h23.7
		c-0.1-29.6-24.1-53.6-53.7-53.6c-29.6,0-53.6,24-53.6,53.6c0,18.1,8.9,34,22.6,43.8l64.8,43.5c16.4,12.6,22.3,33.2,22.3,45.4
		c0,31-25.1,56.1-56.1,56.1c-31,0-56.1-25.1-56.1-56.1c0-8,2.1-17,5.1-23.9H76.8c-2.4,7.5-3.4,15.6-3.4,23.9
		c0,42.7,34.7,77.4,77.4,77.4c42.7,0,77.4-34.6,77.4-77.4c0-25.5-12.3-48.1-31.3-62.2L133.8,130.9z"/>
	<path class="st2" d="M231.6,239.1h-30.2v-23.9l51.6,0c1.8,7.7,2.7,15.7,2.7,23.9H231.6z"/>
	<g>
		<path class="st4" d="M113.4,222.6v-3.2c1.5-0.1,2.5-0.2,3.1-0.3c0.9-0.2,1.7-0.6,2.3-1.3c0.4-0.4,0.7-1,0.9-1.7
			c0.1-0.4,0.2-0.7,0.2-1h3.9v23.9H119v-16.5H113.4z"/>
		<path class="st4" d="M129,217.4c1.5-1.6,3.4-2.4,5.8-2.4c3.6,0,6.1,1.6,7.5,4.8c0.8,1.8,1.2,4.2,1.2,7.2c0,2.9-0.4,5.3-1.1,7.2
			c-1.4,3.7-4,5.5-7.7,5.5c-1.8,0-3.4-0.5-4.8-1.6c-1.4-1.1-2.2-2.6-2.5-4.6h4.7c0.1,0.7,0.4,1.3,0.9,1.7c0.5,0.4,1.1,0.7,1.9,0.7
			c1.5,0,2.6-0.9,3.3-2.6c0.3-0.9,0.6-2.3,0.6-4.1c-0.4,0.5-0.9,1-1.4,1.2c-0.9,0.5-2,0.8-3.2,0.8c-1.9,0-3.6-0.7-5.1-2
			c-1.5-1.3-2.2-3.2-2.2-5.7C126.8,221,127.5,219,129,217.4z M136.9,226.9c1.1-0.7,1.6-1.9,1.6-3.5c0-1.4-0.3-2.4-0.9-3.2
			c-0.6-0.8-1.5-1.2-2.6-1.2c-0.8,0-1.5,0.2-2.1,0.7c-0.9,0.7-1.4,1.9-1.4,3.6c0,1.4,0.3,2.5,0.9,3.2s1.5,1.1,2.7,1.1
			C135.7,227.4,136.3,227.2,136.9,226.9z"/>
		<path class="st4" d="M161,218.2c1.2,2.1,1.8,5.2,1.8,9.1c0,3.9-0.6,7-1.8,9.1c-1.2,2.1-3.4,3.2-6.4,3.2c-3,0-5.2-1.1-6.4-3.2
			c-1.2-2.1-1.8-5.2-1.8-9.1c0-3.9,0.6-7,1.8-9.1c1.2-2.1,3.4-3.2,6.4-3.2C157.6,215,159.7,216.1,161,218.2z M151.8,233.7
			c0.5,1.5,1.4,2.2,2.8,2.2c1.4,0,2.3-0.7,2.7-2.2c0.4-1.5,0.7-3.6,0.7-6.3c0-2.9-0.2-5-0.7-6.4c-0.4-1.4-1.3-2.1-2.7-2.1
			c-1.4,0-2.3,0.7-2.8,2.1c-0.5,1.4-0.7,3.5-0.7,6.4C151.1,230.1,151.3,232.2,151.8,233.7z"/>
		<path class="st4" d="M169.6,232.6c0.2,1,0.5,1.8,1.1,2.4c0.5,0.6,1.3,0.8,2.3,0.8c1.2,0,2-0.4,2.7-1.2c0.6-0.8,0.9-1.9,0.9-3.1
			c0-1.2-0.3-2.3-0.9-3.1c-0.6-0.9-1.5-1.3-2.7-1.3c-0.6,0-1.1,0.1-1.5,0.2c-0.7,0.3-1.3,0.8-1.7,1.5l-4.2-0.2l1.7-13.4h13.2v4.1
			h-9.8l-0.9,5.3c0.7-0.5,1.3-0.8,1.7-1c0.7-0.3,1.5-0.4,2.5-0.4c2,0,3.7,0.7,5.2,2c1.5,1.4,2.2,3.3,2.2,5.9c0,2.2-0.7,4.2-2.1,6
			c-1.4,1.8-3.5,2.6-6.4,2.6c-2.3,0-4.1-0.6-5.6-1.9c-1.5-1.2-2.3-3-2.4-5.3H169.6z"/>
	</g>
</g>
</svg>
