<?xml version="1.0" encoding="UTF-8" standalone="no"?>
<!-- Generator: Adobe Illustrator 12.0.0, SVG Export Plug-In . SVG Version: 6.00 Build 51448)  -->

<svg
   version="1.1"
   id="Ebene_1"
   width="607.29999"
   height="747.99902"
   viewBox="0 0 607.29999 747.99902"
   overflow="visible"
   enable-background="new 0 0 1080 800"
   xml:space="preserve"
   sodipodi:docname="Logo GNK Dinamo Zagreb (2019).svg"
   inkscape:version="1.4.2 (f4327f4, 2025-05-13)"
   xmlns:inkscape="http://www.inkscape.org/namespaces/inkscape"
   xmlns:sodipodi="http://sodipodi.sourceforge.net/DTD/sodipodi-0.dtd"
   xmlns="http://www.w3.org/2000/svg"
   xmlns:svg="http://www.w3.org/2000/svg"><defs
   id="defs23" /><sodipodi:namedview
   id="namedview23"
   pagecolor="#505050"
   bordercolor="#eeeeee"
   borderopacity="1"
   inkscape:showpageshadow="0"
   inkscape:pageopacity="0"
   inkscape:pagecheckerboard="0"
   inkscape:deskcolor="#505050"
   showguides="true"
   inkscape:zoom="0.92875"
   inkscape:cx="303.63392"
   inkscape:cy="374.15882"
   inkscape:window-width="1680"
   inkscape:window-height="987"
   inkscape:window-x="-8"
   inkscape:window-y="-8"
   inkscape:window-maximized="1"
   inkscape:current-layer="Ebene_1" />
<path
   fill="#aa975e"
   d="m 425.935,164.344 c 29.095,13.546 58.219,30.294 81.4,52.707 34.059,30.731 60.69,68.798 77.891,111.324 12.264,31.727 19.703,65.11 22.074,99.042 v 31.896 c -3.386,40.516 -12.1,79.86 -30.325,116.404 -37.621,78.784 -110.832,140.356 -195.526,161.938 -22.874,6.988 -46.396,9.235 -70.163,10.344 H 293.275 C 157.357,742.674 41.353,648.085 8.775,516.02 4.406,497.203 1.472,478.081 0,458.819 V 426.8 C 2.279,404.048 5.019,381.635 11.607,359.561 38.883,261.567 117.791,180.105 215.723,151.503 284.1,130.048 360.576,135.344 425.935,164.344"
   id="path1" />
<path
   fill="#ee352a"
   d="m 356.327,165.668 v 99.134 H 250.76 v -99.226 c 34.869,-6.742 70.709,-6.711 105.567,0.092"
   id="path2" />
<path
   fill="#ffffff"
   d="m 240.015,167.73 c 0.164,32.306 0.164,64.61 0,96.917 h -105.26 c -0.185,-15.979 0,-31.926 0,-47.904 31.404,-23.3 67.216,-39.973 105.26,-49.013"
   id="path3" />
<path
   fill="#ffffff"
   d="m 367.101,167.73 c 38.115,9.02 73.966,25.788 105.322,49.259 0,15.886 0,31.741 -0.185,47.596 H 367.101 c -0.183,-32.242 -0.183,-64.528 0,-96.855"
   id="path4" />
<path
   fill="#ee352a"
   d="m 124.225,224.933 c 0.164,13.259 0.164,26.548 0,39.869 H 84.417 c 12.022,-14.48 25.348,-27.826 39.808,-39.869"
   id="path5" />
<path
   fill="#ee352a"
   d="m 482.891,224.809 6.158,5.479 c 3.612,3.306 7.163,6.65 10.652,10.037 -5.604,5.665 -11.237,11.36 -16.902,16.963 -0.093,-10.805 -0.093,-21.642 0.092,-32.479"
   id="path6" />
<path
   fill="#00509f"
   d="m 507.305,247.961 c 45.673,47.062 73.438,108.621 78.477,174.008 3.079,27.031 0,54.924 -5.173,81.522 -12.481,58.402 -43.041,111.39 -87.342,151.44 V 602.409 H 469.654 V 336.104 h -50.028 c 28.723,-29.71 58.278,-58.895 87.679,-88.143"
   id="path7" />
<path
   fill="#ffffff"
   d="m 78.907,275.638 c 15.115,-0.555 30.324,0 45.472,0 V 380.836 H 27.431 c 8.528,-35.734 23.67,-69.556 44.643,-99.719 1.876,-2.062 3.445,-5.879 6.833,-5.479"
   id="path8" />
<path
   fill="#ee352a"
   d="m 134.878,275.7 c 35.005,-0.677 70.225,0 105.229,-0.246 V 381.022 H 134.631 c 0.124,-35.036 -0.307,-70.194 0.247,-105.322"
   id="path9" />
<path
   fill="#ffffff"
   d="m 251.036,275.823 c 34.974,-0.8 70.193,0 105.229,-0.308 V 380.868 H 250.974 c -0.153,-34.943 -0.553,-70.04 0.062,-105.045"
   id="path10" />
<path
   fill="#ee352a"
   d="m 366.887,275.454 h 97.748 c -20.104,20.258 -40.3,40.331 -60.373,60.619 h -37.345 c -0.122,-20.165 -0.062,-40.392 -0.03,-60.619"
   id="path11" />
<path
   fill="#ffffff"
   d="m 459.155,346.54 c -0.186,88.729 0.246,177.455 -0.217,266.184 7.913,0.338 15.825,0.399 23.769,0.37 v 34.11 H 426.799 L 423.72,641.2 c -10.429,7.813 -22.322,13.444 -34.974,16.563 -35.99,9.052 -76.382,-9.051 -94.7,-41.131 -13.72,-22.897 -16.183,-50.822 -6.681,-75.768 11.556,-29.895 38.276,-51.278 69.978,-56.001 24.63,-3.849 47.721,3.94 67.731,18.011 0.153,-40.762 0,-81.555 0,-122.315 h -58.125 c 0,-11.33 -0.186,-22.66 0,-34.021 30.756,-0.029 61.481,0.033 92.206,0.002"
   id="path12" />
<path
   fill="#ee352a"
   d="M 124.38,391.581 V 497.365 H 25.216 c -6.712,-34.969 -6.648,-70.899 0.186,-105.846 32.91,-0.184 65.82,-0.123 98.978,0.062"
   id="path13" />
<path
   fill="#ffffff"
   d="m 134.908,391.827 c 35.005,-0.677 70.193,-0.185 105.229,-0.185 V 497.21 c -35.188,0.245 -70.378,0 -105.566,0 0.367,-35.004 -0.247,-70.316 0.337,-105.383"
   id="path14" />
<path
   fill="#ee352a"
   d="m 250.913,391.735 c 32.603,-0.708 65.422,0 98.024,-0.246 -32.839,32.839 -65.586,65.679 -98.239,98.519 0.152,-32.728 -0.401,-65.608 0.215,-98.273"
   id="path15" />
<path
   fill="#00509f"
   d="m 367.996,391.119 c 15.607,-0.308 31.218,0 46.796,0 v 92.978 c -12.178,-5.902 -25.359,-9.455 -38.854,-10.468 -35.862,-2.039 -70.021,15.487 -89.28,45.811 -29.021,46.024 -15.236,106.86 30.788,135.881 24.335,15.344 54.159,19.285 81.646,10.788 9.513,-2.863 17.209,-8.99 26.877,-8.559 21.549,0 42.886,0 64.344,0.215 -110.43,97.721 -277.547,93.69 -383.142,-9.235 84.52,-84.15 168.813,-168.538 252.883,-253.16 2.493,-2.219 4.155,-4.497 7.942,-4.251"
   id="path16" />
<path
   fill="#ffffff"
   d="m 27.278,507.863 c 31.957,-0.308 63.914,0.339 95.809,-0.37 0.685,4.777 1.127,9.587 1.323,14.408 -0.309,30.387 0,60.835 0,91.253 -16.04,0.246 -32.049,0 -48.059,0.186 C 52.972,581.895 36.272,546 27.278,507.863"
   id="path17" />
<path
   fill="#ee352a"
   d="m 134.631,507.863 h 97.963 c -32.479,32.941 -65.329,65.575 -97.963,98.519 -0.082,-32.839 -0.082,-65.68 0,-98.519"
   id="path18" />
<path
   fill="#aa975e"
   d="m 352.91,517.099 c 10.838,-3.078 22.318,-3.078 33.156,0 21.018,6.844 36.382,24.947 39.716,46.796 5.542,32.573 -21.797,65.669 -55.047,65.114 -29.37,1.848 -56.217,-22.905 -58.494,-51.876 -1.979,-27.014 14.848,-51.852 40.669,-60.034"
   id="path19" />
<path
   fill="#00509f"
   d="m 361.345,526.336 c 23.136,-3.992 45.606,9.927 52.338,32.419 3.078,14.314 2.309,29.31 -7.02,41.254 -15.352,20.645 -44.529,24.936 -65.174,9.586 -14.903,-11.082 -21.802,-29.959 -17.552,-48.039 4.349,-18.138 19.04,-31.972 37.408,-35.22"
   id="path20" />
<path
   fill="#ee352a"
   d="m 84.418,624.145 h 32.019 c -5.419,5.942 -11.021,11.638 -16.718,17.241 -5.264,-5.634 -10.344,-11.361 -15.301,-17.241"
   id="path21" />
<polygon
   fill="#aa975e"
   points="522.546,59.898 485.188,65.408 512.284,91.708 505.981,128.94 539.367,111.296 572.828,128.796 566.365,91.592 593.35,65.177 555.969,59.826 539.185,26 "
   id="polygon21"
   transform="translate(-236.349,-26)" />
<polygon
   fill="#aa975e"
   points="368.921,87.626 331.564,93.136 358.66,119.436 352.357,156.668 385.742,139.024 419.204,156.524 412.74,119.32 439.726,92.904 402.345,87.554 385.56,53.728 "
   id="polygon22"
   transform="translate(-236.349,-26)" />
<polygon
   fill="#aa975e"
   points="692.219,53.729 675.579,87.626 638.223,93.136 665.32,119.437 659.016,156.668 692.402,139.024 725.864,156.524 719.4,119.32 746.385,92.904 709.004,87.554 "
   id="polygon23"
   transform="translate(-236.349,-26)" />
</svg>
