<?xml version="1.0" encoding="UTF-8" standalone="no"?>
<svg
   xmlns:dc="http://purl.org/dc/elements/1.1/"
   xmlns:cc="http://creativecommons.org/ns#"
   xmlns:rdf="http://www.w3.org/1999/02/22-rdf-syntax-ns#"
   xmlns:svg="http://www.w3.org/2000/svg"
   xmlns="http://www.w3.org/2000/svg"
   xmlns:sodipodi="http://sodipodi.sourceforge.net/DTD/sodipodi-0.dtd"
   xmlns:inkscape="http://www.inkscape.org/namespaces/inkscape"
   width="403.60895"
   height="700"
   viewBox="0 0 403.60894 700"
   id="svg2"
   version="1.1"
   inkscape:version="1.0.1 (c497b03c, 2020-09-10)"
   sodipodi:docname="Logo_Football_Bourg-en-Bresse_PeÌronnas_01_-_2015 copie.svg">
  <defs
     id="defs4" />
  <sodipodi:namedview
     id="base"
     pagecolor="#ffffff"
     bordercolor="#666666"
     borderopacity="1.0"
     inkscape:pageopacity="0.0"
     inkscape:pageshadow="2"
     inkscape:zoom="0.7"
     inkscape:cx="300.09574"
     inkscape:cy="353.22467"
     inkscape:document-units="px"
     inkscape:current-layer="layer1"
     showgrid="false"
     inkscape:window-width="1920"
     inkscape:window-height="911"
     inkscape:window-x="0"
     inkscape:window-y="25"
     inkscape:window-maximized="1"
     units="px"
     inkscape:document-rotation="0" />
  <metadata
     id="metadata7">
    <rdf:RDF>
      <cc:Work
         rdf:about="">
        <dc:format>image/svg+xml</dc:format>
        <dc:type
           rdf:resource="http://purl.org/dc/dcmitype/StillImage" />
        <dc:title />
      </cc:Work>
    </rdf:RDF>
  </metadata>
  <g
     inkscape:label="Calque 1"
     inkscape:groupmode="layer"
     id="layer1"
     transform="translate(23.583949,144.89729)">
    <g
       id="g1169"
       style="fill:#c1933f;fill-opacity:1"
       transform="matrix(1.0048757,0,0,1.0048757,0.11498826,0.70647571)">
      <path
         style="font-style:normal;font-weight:normal;font-size:41.8951px;line-height:125%;font-family:Sans;letter-spacing:0px;word-spacing:0px;fill:#c1933f;fill-opacity:1;stroke:none;stroke-width:3.13785;stroke-linecap:butt;stroke-linejoin:miter;stroke-miterlimit:4;stroke-dasharray:none;stroke-opacity:1"
         d="m 181.43666,-144.89709 v 13.55549 h 14.14542 v 8.30902 h -14.13914 v 13.24798 a 15.450761,15.450761 0 0 1 11.47825,14.760456 15.664135,15.664135 0 0 1 -15.87752,15.362916 15.657859,15.657859 0 0 1 -15.8775,-15.362916 15.43821,15.43821 0 0 1 10.43648,-14.434126 l 1.04804,-0.32652 v -13.24169 h -14.14542 v -8.31531 h 14.14542 v -13.5555 z"
         id="path1156" />
      <path
         style="font-style:normal;font-weight:normal;font-size:41.8951px;line-height:125%;font-family:Sans;letter-spacing:0px;word-spacing:0px;fill:#c1933f;fill-opacity:1;stroke:none;stroke-width:3.13785;stroke-linecap:butt;stroke-linejoin:miter;stroke-miterlimit:4;stroke-dasharray:none;stroke-opacity:1"
         d="m 153.03287,-41.523821 0.26359,4.31139 a 224.06742,224.06742 0 0 0 12.29409,59.104477 c -11.0515,0.10062 -21.24323,0.426665 -31.25297,0.834656 l -0.26985,-0.313951 -1.65678,-1.788604 a 221.84582,221.84582 0 0 1 -32.34493,-49.308128 209.6396,209.6396 0 0 1 48.81235,-12.35053 z"
         id="path1154" />
      <path
         style="font-style:normal;font-weight:normal;font-size:41.8951px;line-height:125%;font-family:Sans;letter-spacing:0px;word-spacing:0px;fill:#c1933f;fill-opacity:1;stroke:none;stroke-width:3.13785;stroke-linecap:butt;stroke-linejoin:miter;stroke-miterlimit:4;stroke-dasharray:none;stroke-opacity:1"
         d="m 201.00428,-41.523821 c 18.13676,1.951724 35.95973,6.275691 52.99197,12.840033 A 221.86465,221.86465 0 0 1 221.64504,20.62434 l -1.65678,1.788604 -0.27612,0.313952 a 955.58756,955.58756 0 0 0 -31.25296,-0.834656 224.06742,224.06742 0 0 0 12.2878,-59.104477 z"
         id="path1152" />
      <path
         style="font-style:normal;font-weight:normal;font-size:41.8951px;line-height:125%;font-family:Sans;letter-spacing:0px;word-spacing:0px;fill:#c1933f;fill-opacity:1;stroke:none;stroke-width:3.13785;stroke-linecap:butt;stroke-linejoin:miter;stroke-miterlimit:4;stroke-dasharray:none;stroke-opacity:1"
         d="m 177.13781,-74.408467 c 7.73793,0 14.13287,12.243864 14.13287,37.177219 l -0.0126,2.108602 c -0.0627,3.94113 -0.52716,8.936586 -1.26769,14.365092 l -0.60874,4.141934 -0.6966,4.242359 -0.77819,4.2863319 -0.41419,2.1462862 -0.87232,4.2423594 -0.92252,4.141982 -0.95391,3.9787659 -0.48951,1.9140879 -0.98528,3.6273727 c -1.48734,5.221365 -2.99351,9.407223 -4.33023,11.653935 -0.66522,1.16728 -1.33045,1.612859 -1.92036,1.612859 -0.58992,0 -1.25514,-0.470685 -1.95802,-1.68189 -1.33672,-2.284347 -2.84289,-6.476493 -4.33023,-11.697907 L 169.7513,8.2235975 168.78485,4.3514976 167.84349,0.29112363 166.95234,-3.8947826 a 277.29786,277.29786 0 0 1 -0.42676,-2.1337087 l -0.80956,-4.2675147 -0.73426,-4.267465 c -1.27397,-7.763018 -2.11491,-15.149536 -2.19649,-20.559175 -0.35773,-25.642479 5.81757,-38.576697 13.47391,-39.260715 z"
         id="path1150" />
      <path
         style="font-style:normal;font-weight:normal;font-size:41.8951px;line-height:125%;font-family:Sans;letter-spacing:0px;word-spacing:0px;fill:#c1933f;fill-opacity:1;stroke:none;stroke-width:3.13785;stroke-linecap:butt;stroke-linejoin:miter;stroke-miterlimit:4;stroke-dasharray:none;stroke-opacity:1"
         d="m 286.3098,-11.300118 c 2.62324,4.5561657 2.07098,10.80050972 -1.75719,18.0489178 l -0.75308,1.3680833 A 131.41305,131.41305 0 0 1 272.16438,26.153272 l -6.69616,-0.627613 -9.4512,-0.771866 -7.81324,-0.564822 a 220.15766,220.15766 0 0 0 33.13567,-29.7969899 h 0.006 l 0.79074,-0.8786286 2.74876,-3.1566873 1.4183,-1.6567832 z"
         id="path1148" />
      <path
         style="font-style:normal;font-weight:normal;font-size:41.8951px;line-height:125%;font-family:Sans;letter-spacing:0px;word-spacing:0px;fill:#c1933f;fill-opacity:1;stroke:none;stroke-width:3.13785;stroke-linecap:butt;stroke-linejoin:miter;stroke-miterlimit:4;stroke-dasharray:none;stroke-opacity:1"
         d="m 68.166641,-11.300118 4.167062,4.8071818 0.790737,0.8786286 a 221.8521,221.8521 0 0 0 33.13567,29.8095186 l -9.193893,0.665248 -9.815187,0.815839 -4.945248,0.476974 A 131.53857,131.53857 0 0 1 72.409011,11.254753 L 70.676919,8.1168831 C 66.177246,0.29112363 65.373957,-6.4615411 68.166641,-11.300118 Z"
         id="path1146" />
      <path
         style="font-style:normal;font-weight:normal;font-size:41.8951px;line-height:125%;font-family:Sans;letter-spacing:0px;word-spacing:0px;fill:#c1933f;fill-opacity:1;stroke:none;stroke-width:3.13785;stroke-linecap:butt;stroke-linejoin:miter;stroke-miterlimit:4;stroke-dasharray:none;stroke-opacity:1"
         d="m 92.535165,-94.923718 c 0.646397,0 1.317896,0.01935 2.008223,0.05031 l 2.133736,0.156734 c 9.890496,0.960188 23.433446,5.585336 38.218986,19.580168 l 1.6505,1.593993 c 0.25731,0.269931 1.85133,1.914088 1.51872,3.301037 l -0.18827,0.45182 c -1.51871,2.196499 -3.56459,2.039571 -6.17528,1.405718 l -4.5185,-1.179809 -2.51028,-0.596169 -1.90153,-0.401509 -2.06471,-0.376355 -2.19022,-0.344911 -2.2969,-0.27622 c -9.74615,-0.997872 -21.582115,0.188178 -27.217689,10.44902 -6.319625,14.038708 1.016662,33.01013 11.572379,50.324769 l 2.08353,3.3261441 2.14629,3.2758825 c 0.35772,0.5460046 0.72171,1.0794317 1.09197,1.6191476 l 2.20905,3.17550506 2.22787,3.10018574 2.23415,3.0123373 2.22159,2.9056713 3.27591,4.1482224 2.12119,2.616971 5.12724,6.112523 a 2.491451,2.491451 0 0 1 -0.58364,3.483023 3.5332164,3.5332164 0 0 1 -2.07098,0.73423 4.6440144,4.6440144 0 0 1 -2.2969,-0.690306 234.44742,234.44742 0 0 1 -41.02422,-35.6208613 l -4.581257,-5.2590497 -2.874269,-3.382596 -1.926638,-2.334561 a 188.96118,188.96118 0 0 1 -0.960181,-1.192386 l -1.914087,-2.434938 -1.870158,-2.491439 c -0.313786,-0.420376 -0.615017,-0.840945 -0.916251,-1.267706 l -1.788573,-2.573047 C 53.462689,-43.927025 47.576084,-59.277411 55.721939,-74.238672 a 39.838113,39.838113 0 0 1 34.742249,-20.628206 c 0.677775,-0.0566 1.35555,-0.0566 2.070979,-0.0566 z"
         id="path1144" />
      <path
         style="font-style:normal;font-weight:normal;font-size:41.8951px;line-height:125%;font-family:Sans;letter-spacing:0px;word-spacing:0px;fill:#c1933f;fill-opacity:1;stroke:none;stroke-width:3.13785;stroke-linecap:butt;stroke-linejoin:miter;stroke-miterlimit:4;stroke-dasharray:none;stroke-opacity:1"
         d="m 261.92873,-94.923718 c 0.7217,0 1.39948,0 2.07725,0.06289 a 39.850664,39.850664 0 0 1 34.74225,20.621917 c 8.67301,15.927738 1.44341,32.294766 -8.5726,46.28955 l -1.85133,2.522835 -0.94136,1.23631 -1.9078,2.428698 -1.92665,2.372195 -1.92663,2.303165 -4.7005,5.459853 -1.78857,2.0396199 a 234.40976,234.40976 0 0 1 -41.01795,35.6208611 4.6753929,4.6753929 0 0 1 -2.30318,0.690307 3.5332164,3.5332164 0 0 1 -2.07097,-0.734231 2.4977267,2.4977267 0 0 1 -0.58992,-3.483022 l 3.07509,-3.639902 2.04588,-2.472621 2.12118,-2.616972 3.27592,-4.1482223 2.22787,-2.9119599 2.23415,-3.0123374 c 0.37655,-0.502032 0.74681,-1.0166415 1.11707,-1.5312509 l 2.2216,-3.13782122 2.19649,-3.21947758 2.14001,-3.2758824 2.08353,-3.3261433 c 10.562,-17.308351 17.90456,-36.286062 11.58493,-50.331059 -5.63557,-10.248216 -17.47153,-11.440603 -27.21768,-10.44273 l -2.29691,0.276219 -2.19649,0.344911 -2.05843,0.376355 -1.90154,0.401509 -2.51027,0.596169 -4.5185,1.179809 c -2.38477,0.571111 -4.29258,0.753097 -5.76109,-0.859762 l -0.42676,-0.545956 c -0.62757,-1.02293 0.13806,-2.303214 0.75308,-3.087657 l 0.45186,-0.527138 0.12554,-0.137868 c 15.42565,-15.249913 29.615,-20.176338 39.86949,-21.174162 l 2.13373,-0.156734 c 0.69033,-0.02902 1.36183,-0.05031 2.00822,-0.05031 z"
         id="path1142" />
      <path
         style="font-style:normal;font-weight:normal;font-size:41.8951px;line-height:125%;font-family:Sans;letter-spacing:0px;word-spacing:0px;fill:#c1933f;fill-opacity:1;stroke:none;stroke-width:3.13785;stroke-linecap:butt;stroke-linejoin:miter;stroke-miterlimit:4;stroke-dasharray:none;stroke-opacity:1"
         d="m 322.85945,-48.577714 c 5.27158,0.483262 10.38,2.096073 14.96126,4.719333 a 24.525416,24.525416 0 0 1 11.54728,14.954972 c 3.74659,15.275019 -9.98463,29.2258794 -26.48344,40.333858 l -3.02488,1.989407 c -0.50206,0.326529 -1.01666,0.646431 -1.52499,0.966477 l -3.08137,1.888982 -3.09392,1.819951 -3.08137,1.757209 -3.05626,1.681889 -3.01233,1.60657 -5.79875,2.980943 -5.37199,2.667184 -5.88033,2.85541 a 4.9577991,4.9577991 0 0 1 -2.20276,0.451819 2.6922732,2.6922732 0 0 1 -2.0145,-1.129645 2.6797218,2.6797218 0 0 1 -0.12553,-3.075079 l 0.433,-0.520898 8.93659,-9.12486 4.79463,-5.020514 5.19627,-5.5853849 2.12119,-2.3220312 C 314.6006,-7.40296 320.14831,-18.429331 317.90789,-25.244738 a 16.360737,16.360737 0 0 0 -11.62259,-10.982446 60.673421,60.673421 0 0 0 5.29041,-12.532564 64.269394,64.269394 0 0 1 11.28998,0.188177 z"
         id="path1140" />
      <path
         style="font-style:normal;font-weight:normal;font-size:41.8951px;line-height:125%;font-family:Sans;letter-spacing:0px;word-spacing:0px;fill:#c1933f;fill-opacity:1;stroke:none;stroke-width:3.13785;stroke-linecap:butt;stroke-linejoin:miter;stroke-miterlimit:4;stroke-dasharray:none;stroke-opacity:1"
         d="m 31.604441,-48.577714 c 3.746592,-0.388932 7.530834,-0.451819 11.296253,-0.188178 1.28024,4.367892 3.049987,8.572616 5.277858,12.538853 a 16.34191,16.34191 0 0 0 -11.610036,10.982447 c -2.158839,6.551813 2.88682,17.0008323 13.505296,29.1066834 l 2.359661,2.6232117 4.192165,4.5561659 6.834232,7.204484 9.005622,9.206468 c 0.94763,0.9539 1.048041,2.447515 0.238477,3.51437 a 2.6985489,2.6985489 0 0 1 -2.020773,1.129644 4.9326965,4.9326965 0 0 1 -2.196494,-0.451819 L 58.633861,26.818617 54.385215,24.67233 51.44819,23.14108 48.435857,21.534509 45.385869,19.85262 42.298227,18.095411 39.210585,16.27546 36.135496,14.392767 a 176.0709,176.0709 0 0 1 -1.53755,-0.972765 L 31.573065,11.430594 28.610936,9.3784454 C 13.486507,-1.3718031 1.5815174,-14.550749 5.1021803,-28.903263 a 24.487762,24.487762 0 0 1 11.5472787,-14.954973 36.825779,36.825779 0 0 1 14.954982,-4.719333 z"
         id="path1138" />
      <path
         style="font-style:normal;font-weight:normal;font-size:41.8951px;line-height:125%;font-family:Sans;letter-spacing:0px;word-spacing:0px;fill:#c1933f;fill-opacity:1;stroke:none;stroke-width:3.13785;stroke-linecap:butt;stroke-linejoin:miter;stroke-miterlimit:4;stroke-dasharray:none;stroke-opacity:1"
         d="m 267.05597,37.411841 v 16.492512 l -7.73166,-0.677729 -10.46785,-0.778203 -9.08721,-0.577351 -10.59965,-0.564822 -11.94265,-0.51461 -8.62908,-0.288796 -6.79658,-0.1756 -9.4512,-0.181889 -7.35511,-0.07546 -10.10387,-0.02419 -7.49945,0.04354 -12.02424,0.188178 -9.14368,0.225909 -8.66046,0.288797 -11.99913,0.514609 -7.26098,0.376355 -8.1584,0.483263 -10.731443,0.73423 -11.999129,1.004113 V 37.41218 l 9.470024,-0.80955 10.574548,-0.753096 8.29647,-0.51461 7.47435,-0.407798 8.1584,-0.382644 11.05778,-0.426664 9.4763,-0.26993 7.41787,-0.156734 10.28587,-0.125774 10.32979,-0.02902 9.87794,0.06918 9.51396,0.163022 9.0872,0.232198 12.73966,0.45182 13.30448,0.627564 9.89049,0.58364 8.3153,0.564822 z"
         id="path1136" />
    </g>
    <g
       id="g1200"
       transform="matrix(1.0048757,0,0,1.0048757,0.11498826,0.70647571)">
      <path
         style="font-style:normal;font-weight:normal;font-size:41.8951px;line-height:125%;font-family:Sans;letter-spacing:0px;word-spacing:0px;fill:#c1933f;fill-opacity:1;stroke:none;stroke-width:3.13785;stroke-linecap:butt;stroke-linejoin:miter;stroke-miterlimit:4;stroke-dasharray:none;stroke-opacity:1"
         d="m 169.55677,61.981177 7.68145,-0.02903 7.67518,0.02419 11.18329,0.125291 7.24215,0.137867 7.07898,0.181889 6.90327,0.219621 6.73382,0.263642 6.57065,0.295085 6.40121,0.332818 9.28803,0.564822 8.92404,0.627564 5.74226,0.451819 8.30902,0.727942 7.94503,0.778203 7.58104,0.822127 7.2296,0.859762 6.87189,0.891158 6.51417,0.916216 6.169,0.935082 7.68773,1.255176 5.36572,0.9539 6.62086,1.261417 4.58126,0.935082 6.87816,1.506145 4.84484,1.154751 4.26747,1.079398 4.53105,1.236315 4.27375,1.273966 3.41397,1.117072 1.94547,0.753082 a 1.0229383,1.0229383 0 0 1 0.16317,0.282411 l 0.20709,0.564812 0.37655,1.343002 0.45187,1.920362 0.70288,3.413977 1.01038,5.535162 1.11708,6.834235 0.94135,6.31335 0.96646,6.9974 0.96646,7.6187 0.94135,8.17095 0.67777,6.45141 0.8535,8.9868 0.39536,4.63774 0.55226,7.11664 0.48951,7.2798 0.29494,4.93897 0.25101,4.98291 0.22591,5.0331 0.1757,5.07076 0.14435,5.10214 0.0941,5.12097 0.0314,2.56676 0.0251,5.1398 c 0,59.96426 -12.01795,137.66992 -54.30986,199.08387 l -1.44341,2.07098 -2.98723,4.19217 -1.54383,2.10863 -3.1755,4.24237 -3.28846,4.27375 -3.40142,4.29885 -3.50185,4.32395 -1.78229,2.16512 -3.63363,4.3365 -3.71521,4.34906 -1.88271,2.17139 -3.81562,4.34278 -3.87838,4.33023 -3.92231,4.31768 -3.97252,4.29885 -4.00389,4.26747 -6.05604,6.34473 -4.0541,4.17962 -6.08743,6.18155 -4.06037,4.04782 -6.05605,5.96192 -5.99956,5.80501 -5.91171,5.6293 -5.79247,5.42848 -3.79052,3.50184 -5.54771,5.06448 -5.35944,4.81346 -5.14607,4.54361 -4.90132,4.26119 -4.63774,3.95369 -4.3365,3.62108 -4.01645,3.28218 -2.48517,1.98312 -3.41398,2.6609 -2.05843,1.55637 -2.7362,1.98312 -1.58148,1.09197 -1.38065,0.88487 -1.161,0.69661 -1.16101,-0.69033 -1.38065,-0.88487 -1.58147,-1.0857 -1.77603,-1.28024 -1.97057,-1.46224 -2.14628,-1.64423 -3.5395,-2.78641 -3.90348,-3.16295 -4.22982,-3.51439 -6.1188,-5.19 -3.23826,-2.80523 -5.07076,-4.45575 -5.29041,-4.71932 -5.48496,-4.9829 -3.75914,-3.45163 -5.74854,-5.35945 -5.87405,-5.56026 -3.97251,-3.80935 -4.01017,-3.89093 -6.05605,-5.96191 -6.087422,-6.0937 -4.060375,-4.13568 -6.074873,-6.28197 -6.037218,-6.36984 -5.968187,-6.43886 -3.928585,-4.31768 -3.878379,-4.33022 -3.815623,-4.34278 -5.591644,-6.52673 -3.639903,-4.33023 -3.539492,-4.33023 c -1.167277,-1.44341 -2.322009,-2.88682 -3.451634,-4.31768 l -3.344943,-4.29257 -3.238261,-4.2612 A 327.51597,327.51597 0 0 1 30.725919,404.14586 C -11.572269,342.68798 -23.583949,265.03252 -23.583949,205.06198 l 0.02516,-5.14607 0.07532,-5.12097 0.112955,-5.11469 0.257305,-7.61869 0.225909,-5.03311 0.251016,-4.98918 0.294941,-4.93269 0.313806,-4.86994 0.539711,-7.1794 0.58364,-6.99112 0.420472,-4.54361 0.652671,-6.62085 0.922529,-8.42199 0.953904,-7.90737 1.211209,-9.037 0.715427,-4.93897 1.148453,-7.311188 1.054316,-6.068599 0.577366,-2.993505 0.671498,-3.1755 0.426761,-1.732093 0.351442,-1.142178 a 1.7258162,1.7258162 0 0 1 0.263593,-0.539711 l 1.28024,-0.502052 1.9203618,-0.671503 3.439084,-1.085696 2.9872309,-0.878595 4.5310496,-1.236311 5.4284766,-1.361852 3.6901101,-0.872292 4.016445,-0.897446 5.87405,-1.230022 6.476518,-1.255129 7.072707,-1.267706 7.687727,-1.261417 6.169009,-0.935082 4.305127,-0.614986 6.752647,-0.897447 9.557884,-1.154751 7.587316,-0.815838 7.94503,-0.784443 8.302744,-0.72799 5.742261,-0.45182 5.911707,-0.426664 6.0686,-0.395221 6.23176,-0.370066 9.66457,-0.483262 6.65224,-0.282508 6.82168,-0.238487 6.99113,-0.207044 7.15429,-0.156734 7.33001,-0.119001 z"
         id="path911" />
      <path
         style="font-style:normal;font-weight:normal;font-size:41.8951px;line-height:125%;font-family:Sans;letter-spacing:0px;word-spacing:0px;fill:#ffffff;fill-opacity:1;stroke:none;stroke-width:3.13785;stroke-linecap:butt;stroke-linejoin:miter;stroke-miterlimit:4;stroke-dasharray:none;stroke-opacity:1"
         d="m 187.89435,83.952402 -10.66868,-0.03773 -10.66868,0.05021 -6.90954,0.07532 -6.74637,0.112955 -9.81519,0.232199 -6.33845,0.188274 -9.21272,0.345153 -8.84873,0.407895 -5.70461,0.301229 -8.25254,0.495782 -5.309237,0.351441 -7.662624,0.571092 -7.317461,0.608742 -6.966021,0.633843 -8.754595,0.891148 -8.139576,0.928803 -7.530834,0.94763 -6.934643,0.960183 -6.338452,0.953905 -5.748538,0.935077 -5.158618,0.909975 -5.635578,1.073148 -5.579091,1.167275 -3.671283,0.847219 -3.25081,0.815844 -2.5479307,0.746807 -0.1882741,0.07532 -0.069031,0.106666 -0.1694564,0.439293 -0.3012289,1.20493 -0.3639708,1.8325 -0.5648126,3.35122 -0.9790109,6.82168 -0.7154271,5.62303 -0.941356,8.09564 -0.7530819,7.21705 -0.5648127,5.80502 -0.7342593,8.18351 -0.6903255,8.61653 -0.47692564,6.70244 -0.57736587,9.18134 -0.37654821,7.02878 -0.21966926,4.73187 -0.27612246,7.14174 -0.20709184,7.17312 -0.094137,4.77581 -0.062742,4.76953 -0.018866,4.73187 c 0,52.74094 10.6749582,124.04539 48.2412692,178.10422 l 1.399479,1.99568 2.899371,4.01644 1.506167,2.02705 3.100193,4.09175 3.219432,4.12941 3.332394,4.15451 3.439081,4.18589 1.757194,2.09608 3.570871,4.20472 3.652455,4.21727 c 0.608742,0.70287 1.230036,1.40575 1.85133,2.10863 l 3.752865,4.21099 3.803071,4.20472 5.792467,6.26314 3.909758,4.14196 5.899153,6.15018 3.934857,4.04782 5.91171,5.96192 5.87405,5.82384 5.81129,5.66068 5.71089,5.4724 5.58536,5.25903 7.19195,6.63969 5.1649,4.66912 4.92642,4.38043 6.15018,5.34689 5.59792,4.73815 3.79052,3.11275 2.32201,1.85133 3.13784,2.43497 1.85761,1.38065 1.65051,1.17356 1.44341,0.96645 c 0.43929,0.28241 0.84094,0.53344 1.21121,0.75309 l 1.14217,-0.70916 1.343,-0.89742 1.53755,-1.07942 2.63579,-1.97057 1.98312,-1.52499 3.26336,-2.60441 4.87622,-4.029 5.4222,-4.60636 5.89915,-5.15235 3.1002,-2.7613 4.83855,-4.36789 6.7401,-6.18783 5.22765,-4.90132 5.35945,-5.09586 5.45985,-5.27159 5.52262,-5.44103 7.44297,-7.44925 5.59165,-5.72343 1.86388,-1.92664 3.9223,-4.11058 c 16.45488,-17.33974 32.31356,-35.60202 44.44448,-52.46481 l 2.54165,-3.5897 C 344.95617,337.08872 355.62485,265.778 355.62485,213.08098 l -0.044,-7.11663 -0.12553,-7.1543 -0.21338,-7.17311 -0.27613,-7.14175 -0.33886,-7.09153 -0.53344,-9.28803 -0.61501,-9.04328 -0.67778,-8.71694 -0.53971,-6.26314 -0.93508,-9.84029 -0.94135,-8.93031 -0.93508,-7.86973 -1.04176,-7.81324 -0.6213,-4.09175 -0.28241,-1.67561 -0.37655,-2.03333 -0.33262,-1.42458 -0.18199,-0.583638 a 0.90997579,0.90997579 0 0 0 -0.15064,-0.2887 l -0.979,-0.332624 -2.21532,-0.615016 -3.45164,-0.859772 -3.85327,-0.878599 -5.79247,-1.192382 -5.81757,-1.098245 -6.72127,-1.161006 -4.48084,-0.709153 -4.80719,-0.715427 -6.93464,-0.960183 -7.53084,-0.953905 -8.14585,-0.928802 -6.50161,-0.671498 -9.219,-0.859773 -7.31119,-0.602467 -7.6689,-0.564813 -10.76909,-0.690325 -8.49729,-0.458108 -5.85523,-0.276123 -9.09348,-0.35773 -9.4512,-0.29494 -9.81518,-0.22591 -6.74637,-0.106666 -6.90327,-0.07532 z"
         id="path1096" />
      <path
         style="font-style:normal;font-weight:normal;font-size:41.8951px;line-height:125%;font-family:Sans;letter-spacing:0px;word-spacing:0px;fill:#ff002e;fill-opacity:1;stroke:none;stroke-width:3.13785;stroke-linecap:butt;stroke-linejoin:miter;stroke-miterlimit:4;stroke-dasharray:none;stroke-opacity:1"
         d="m 170.05883,96.949368 6.96602,-0.01887 6.97857,0.01887 10.14152,0.09414 9.77126,0.169456 6.30708,0.150639 9.14996,0.276122 8.78597,0.338865 8.42199,0.395365 5.40965,0.2887 7.81324,0.476974 7.46179,0.514605 7.09782,0.545986 6.74637,0.58364 8.44709,0.80956 7.82578,0.84095 7.21078,0.85976 5.00801,0.65268 4.66911,0.64639 7.02878,1.06687 3.76542,0.61502 5.54144,0.98528 6.97857,1.38066 4.68167,1.07942 2.43497,0.65894 0.33886,0.12553 0.069,0.10043 0.16317,0.43929 0.19457,0.72798 0.34515,1.63168 0.38908,2.22788 0.43929,2.79895 0.80956,5.8364 0.69033,5.6042 0.54598,4.70677 0.72798,6.86561 0.89743,9.40726 0.68404,8.07683 0.48322,6.33217 0.44558,6.51417 0.27612,4.43065 0.48321,9.02445 0.29494,6.85933 0.2322,6.90326 0.15064,6.90327 0.0753,6.87816 v 2.27808 c 0,48.52367 -9.99091,114.21765 -44.94652,163.89605 -0.89743,1.27397 -1.81996,2.56048 -2.76131,3.85956 l -2.91192,3.91603 -1.4999,1.98312 -3.10019,4.00389 -1.59402,2.02077 -3.27592,4.06666 a 483.60507,483.60507 0 0 1 -1.66933,2.04587 l -3.42653,4.11058 -3.50812,4.12941 -3.58342,4.14196 -3.65245,4.14823 -3.70894,4.14196 -5.64813,6.19411 -3.80934,4.09803 -3.82817,4.07293 -3.84073,4.02272 -5.76109,5.94936 -5.72971,5.81756 -3.79052,3.78425 -7.44925,7.33001 -5.44103,5.24021 -5.27158,5.008 -6.71499,6.24432 -4.75698,4.33023 -5.89915,5.2402 -4.06038,3.51439 -3.69638,3.10647 -3.30729,2.686 -1.97057,1.54382 -0.90998,0.69033 -1.66933,1.23003 -1.45596,1.00411 a 23.659371,23.659371 0 0 1 -1.7572,1.07315 l -0.56481,-0.32005 -1.343,-0.85349 a 48.404436,48.404436 0 0 1 -0.75936,-0.52088 l -1.71954,-1.23632 -1.94546,-1.48733 -2.18395,-1.71955 -2.38476,-1.94546 -2.59186,-2.17139 -4.61264,-3.95369 v -0.006 l -4.2863,-3.78424 -4.58126,-4.12313 -4.83228,-4.43692 -5.05821,-4.73187 -2.60442,-2.46635 -5.33434,-5.10842 -5.47868,-5.33434 -2.78013,-2.74875 -5.6293,-5.62303 -5.69205,-5.77363 -2.85545,-2.94958 -5.71088,-5.96191 -5.69833,-6.05605 C 82.318333,413.11889 66.917778,395.06999 55.571321,378.94773 21.280925,330.23578 11.032713,266.22997 10.631068,218.03891 l -0.0063,-5.26531 0.06903,-6.87189 0.100426,-4.60636 0.200803,-6.90327 0.376548,-9.16251 0.489503,-9.01817 0.414184,-6.62086 0.464397,-6.45769 0.83467,-10.29842 0.709153,-7.72538 0.903701,-8.86755 0.545985,-4.83857 0.702879,-5.80502 0.665224,-4.99545 0.608742,-4.09175 0.407895,-2.42869 0.35773,-1.83251 0.207092,-0.87859 0.175745,-0.58364 a 0.8660459,0.8660459 0 0 1 0.15059,-0.2887 l 0.99156,-0.31376 2.742479,-0.6966 3.018612,-0.69033 5.723431,-1.16728 6.325904,-1.14845 6.281969,-1.02922 7.217049,-1.06686 6.451414,-0.87233 7.053881,-0.86604 7.675176,-0.84722 6.156457,-0.61502 8.76087,-0.79073 6.978573,-0.564817 7.34257,-0.520884 7.694,-0.489503 8.05799,-0.43929 8.42198,-0.401655 8.78598,-0.338864 9.14996,-0.276122 6.30707,-0.150639 9.77126,-0.169456 z"
         id="path1098" />
      <path
         style="font-style:normal;font-weight:normal;font-size:41.8951px;line-height:125%;font-family:Sans;letter-spacing:0px;word-spacing:0px;fill:#ffffff;fill-opacity:1;stroke:none;stroke-width:3.13785;stroke-linecap:butt;stroke-linejoin:miter;stroke-miterlimit:4;stroke-dasharray:none;stroke-opacity:1"
         d="M 332.25417,193.74569 H 21.870839 a 614.27761,614.27761 0 0 0 -0.35773,14.24583 l -0.03773,8.46591 0.0565,4.48712 0.07532,3.28219 0.188274,5.33434 0.188274,3.80307 0.238487,4.0039 0.294941,4.18589 0.36397,4.35533 0.426762,4.51222 0.244727,2.30946 0.539711,4.73815 0.301229,2.41614 0.671498,4.92642 0.370259,2.504 0.80329,5.09587 c 5.271583,31.73619 16.153638,69.10795 38.256639,100.52408 2.140012,3.04999 4.418089,6.15018 6.815405,9.29431 l 3.671281,4.74442 c 1.248864,1.58775 2.52283,3.18806 3.821899,4.78836 l 3.959963,4.82601 4.079202,4.84483 4.192165,4.85112 4.267472,4.85111 4.349057,4.83228 2.196496,2.40987 4.41808,4.78836 4.45575,4.73815 4.45574,4.67539 6.68362,6.87816 4.42436,4.47457 4.38044,4.36788 4.31768,4.24865 4.24237,4.12313 6.18156,5.91798 5.9117,5.54772 3.76542,3.48301 5.33434,4.85111 3.33867,2.97468 3.12529,2.74875 4.2863,3.68384 2.55421,2.13374 2.29063,1.87015 1.04804,0.82839 2.15884,-1.73209 3.73404,-3.10019 4.28002,-3.68384 3.13157,-2.74875 5.06449,-4.5436 5.46613,-5.00173 3.84073,-3.57088 3.97251,-3.74031 6.17529,-5.91798 4.24236,-4.12313 4.31768,-4.24865 4.38044,-4.36788 4.41809,-4.47457 4.45574,-4.56243 4.45574,-4.64401 4.46202,-4.70678 6.64597,-7.16684 4.37415,-4.81973 2.16512,-2.42242 4.27375,-4.85111 4.18589,-4.85112 4.0792,-4.84483 3.96624,-4.82601 a 364.11583,364.11583 0 0 0 12.68945,-16.53019 l 1.63169,-2.2969 c 19.10948,-27.18003 29.8221,-58.81581 35.78401,-87.4016 l 1.06686,-5.32179 c 0.50206,-2.6358 0.96019,-5.25276 1.39321,-7.8258 l 0.80329,-5.08958 c 0.25101,-1.68189 0.4895,-3.34495 0.71543,-4.98918 l 0.62757,-4.86367 0.53971,-4.72559 0.47068,-4.59381 0.39537,-4.43064 0.33262,-4.26747 0.26359,-4.09804 0.21338,-3.90348 0.16317,-3.70893 0.16317,-5.1649 0.0879,-6.0937 v -1.37437 c 0,-4.70678 -0.0565,-9.47631 -0.1757,-14.22073 l -0.21338,-7.11664 z"
         id="path1100" />
      <g
         id="g1190">
        <path
           style="font-style:normal;font-weight:normal;font-size:41.8951px;line-height:125%;font-family:Sans;letter-spacing:0px;word-spacing:0px;fill:#ff002e;fill-opacity:1;stroke:none;stroke-width:3.13785;stroke-linecap:butt;stroke-linejoin:miter;stroke-miterlimit:4;stroke-dasharray:none;stroke-opacity:1"
           d="M 42.988552,203.43537 H 102.34408 V 404.3643 A 428.34757,428.34757 0 0 1 72.446665,367.33142 211.2399,211.2399 0 0 1 44.111903,307.17888 l -1.123351,-4.02272 z"
           id="path1106" />
        <path
           style="font-style:normal;font-weight:normal;font-size:41.8951px;line-height:125%;font-family:Sans;letter-spacing:0px;word-spacing:0px;fill:#ff002e;fill-opacity:1;stroke:none;stroke-width:3.13785;stroke-linecap:butt;stroke-linejoin:miter;stroke-miterlimit:4;stroke-dasharray:none;stroke-opacity:1"
           d="m 311.07997,203.43537 v 99.70824 a 211.32148,211.32148 0 0 1 -29.45811,64.18153 429.19479,429.19479 0 0 1 -25.37891,31.94956 l -4.5185,5.0896 V 203.43537 Z"
           id="path1104" />
        <path
           style="font-style:normal;font-weight:normal;font-size:41.8951px;line-height:125%;font-family:Sans;letter-spacing:0px;word-spacing:0px;fill:#ff002e;fill-opacity:1;stroke:none;stroke-width:3.13785;stroke-linecap:butt;stroke-linejoin:miter;stroke-miterlimit:4;stroke-dasharray:none;stroke-opacity:1"
           d="M 211.37173,203.43537 V 446.3989 l -2.26553,2.19649 -4.44319,4.28003 -4.3114,4.09803 -4.15451,3.8972 -3.98507,3.69011 -5.59792,5.08959 -5.08331,4.5185 -4.4934,3.89093 -2.93075,-2.51655 -3.2006,-2.81151 -5.27159,-4.71933 -3.78424,-3.45163 -3.97879,-3.69011 -6.3008,-5.92426 -6.61458,-6.34472 -2.25925,-2.20277 V 203.43537 Z"
           id="path1102" />
      </g>
    </g>
    <g
       id="g1185"
       transform="matrix(1.0048757,0,0,1.0048757,0.11498826,0.70647571)">
      <path
         style="font-style:normal;font-weight:normal;font-size:41.8951px;line-height:125%;font-family:Sans;letter-spacing:0px;word-spacing:0px;fill:#ffffff;fill-opacity:1;stroke:none;stroke-width:3.13785;stroke-linecap:butt;stroke-linejoin:miter;stroke-miterlimit:4;stroke-dasharray:none;stroke-opacity:1"
         d="m 187.07224,122.46635 -10.3047,-0.0502 v 22.76822 c -0.0314,1.83878 0.10043,3.67755 0.38284,5.49123 l 0.33886,1.80112 -0.11295,0.11296 -10.71889,-30.10451 -9.06838,0.12553 v 44.62019 c 0.069,1.25514 -0.1757,2.50401 -0.70288,3.63363 l -0.45186,0.82212 h 10.09759 v -22.09045 l -0.0502,-1.97685 -0.42676,-4.85738 0.12553,-0.11296 11.05777,29.03765 h 8.48474 v -44.1809 c 0.0315,-1.75719 0.4895,-3.49556 1.34928,-5.03938 z"
         id="path1126" />
      <path
         style="font-style:normal;font-weight:normal;font-size:41.8951px;line-height:125%;font-family:Sans;letter-spacing:0px;word-spacing:0px;fill:#ffffff;fill-opacity:1;stroke:none;stroke-width:3.13785;stroke-linecap:butt;stroke-linejoin:miter;stroke-miterlimit:4;stroke-dasharray:none;stroke-opacity:1"
         d="m 304.52187,134.07011 h -17.92966 l 0.0251,37.61652 h 7.46808 v -15.62648 h 6.2757 v -6.99113 h -6.2757 v -8.02034 h 8.15841 z"
         id="path1124" />
      <path
         id="path1122"
         style="font-style:normal;font-weight:normal;font-size:41.8951px;line-height:125%;font-family:Sans;letter-spacing:0px;word-spacing:0px;fill:#ffffff;fill-opacity:1;stroke:none;stroke-width:3.13785;stroke-linecap:butt;stroke-linejoin:miter;stroke-miterlimit:4;stroke-dasharray:none;stroke-opacity:1"
         d="m 200.35742,300.31836 -10.49219,49.01172 h 9.45704 l 1.61328,-9.30664 h 9.07422 l 1.6875,9.30664 h 10.13671 a 11.999129,11.999129 0 0 1 -1.8457,-3.49414 l -0.33984,-1.25586 -9.70703,-44.0293 -4.78321,-0.12695 z m 4.91406,13.24023 h 0.11914 v 0.008 l 1.01758,6.08007 2.29102,12.84766 h -6.32031 l 1.92578,-12.84766 z"
         transform="translate(0,-177.63802)" />
      <path
         style="font-style:normal;font-weight:normal;font-size:41.8951px;line-height:125%;font-family:Sans;letter-spacing:0px;word-spacing:0px;fill:#ffffff;fill-opacity:1;stroke:none;stroke-width:3.13785;stroke-linecap:butt;stroke-linejoin:miter;stroke-miterlimit:4;stroke-dasharray:none;stroke-opacity:1"
         d="m 114.55658,124.17334 -6.11253,0.37655 -6.04977,0.39536 -3.520663,28.26573 h -0.138065 l -4.280024,-27.69464 c -4.028996,0.31381 -8.03289,0.6464 -11.974026,0.99784 l -3.51439,40.79202 c -0.125513,1.23631 -0.470675,2.44752 -1.035489,3.55832 l -0.458128,0.81583 h 10.762817 l 1.305345,-32.49554 h 0.125513 v 0.84721 l 6.463966,31.66716 h 5.767364 l 5.86778,-32.49555 h 0.12551 l 2.15884,32.49555 h 10.33607 a 10.555719,10.555719 0 0 1 -1.45596,-3.62107 l -0.21338,-1.61286 z"
         id="path1120" />
      <path
         id="path1118"
         style="font-style:normal;font-weight:normal;font-size:41.8951px;line-height:125%;font-family:Sans;letter-spacing:0px;word-spacing:0px;fill:#ffffff;fill-opacity:1;stroke:none;stroke-width:3.13785;stroke-linecap:butt;stroke-linejoin:miter;stroke-miterlimit:4;stroke-dasharray:none;stroke-opacity:1"
         d="m 36.712891,312.36719 -8.597657,36.98242 h 7.279297 l 1.31836,-7.3418 h 7.46875 l 1.380859,7.3418 h 8.515625 a 6.8656103,6.8656103 0 0 1 -1.210937,-2.17773 l -8.410157,-34.80469 z m 3.564453,9.49414 h 0.08789 l 2.710938,14.34179 h -5.171875 l 1.570312,-9.87304 z"
         transform="translate(0,-177.63802)" />
      <path
         style="font-style:normal;font-weight:normal;font-size:41.8951px;line-height:125%;font-family:Sans;letter-spacing:0px;word-spacing:0px;fill:#ffffff;fill-opacity:1;stroke:none;stroke-width:3.13785;stroke-linecap:butt;stroke-linejoin:miter;stroke-miterlimit:4;stroke-dasharray:none;stroke-opacity:1"
         d="m 320.46841,134.28348 -1.04176,0.006 a 17.339745,17.339745 0 0 0 -15.46959,18.99653 l -0.0315,0.65267 a 17.490362,17.490362 0 0 0 17.00713,17.96732 c 1.48734,0.11295 2.96841,-0.21338 4.26748,-0.91626 l 0.75308,-0.47068 -1.98312,-5.62303 c -0.94135,0.38908 -1.94546,0.58364 -2.96213,0.58364 -6.3761,0.20081 -9.90304,-6.18783 -10.10386,-12.43842 -0.20081,-6.75265 3.42652,-12.33802 9.21271,-12.33802 0.62757,-0.0314 1.25514,-0.0126 1.88271,0.0627 l 0.93508,0.13806 1.56265,-5.66068 a 10.65613,10.65613 0 0 0 -4.029,-0.96017 z"
         id="path1116" />
      <path
         id="path1114"
         style="font-style:normal;font-weight:normal;font-size:41.8951px;line-height:125%;font-family:Sans;letter-spacing:0px;word-spacing:0px;fill:#ffffff;fill-opacity:1;stroke:none;stroke-width:3.13785;stroke-linecap:butt;stroke-linejoin:miter;stroke-miterlimit:4;stroke-dasharray:none;stroke-opacity:1"
         d="m 137.44336,300.26758 v 0.006 c -8.00779,0 -15.94531,6.74112 -15.94531,24.74609 0,18.01124 7.96416,24.73828 15.95312,24.73828 7.98895,0 15.92774,-6.74587 15.92774,-24.73828 0,-17.44016 -7.44998,-24.31237 -15.18164,-24.72656 z m 0,8.7793 c 4.14196,0 5.60494,5.65461 6.11328,10.5371 l 0.15039,1.78321 0.0996,2.36523 v 2.41602 l -0.0488,1.39258 -0.10156,1.59375 -0.16797,1.73242 c -0.56482,4.7256 -2.08495,10.10547 -6.04492,10.10547 -4.14196,0 -5.60886,-5.88047 -6.11719,-10.74414 l -0.15234,-1.75782 -0.0801,-1.59375 -0.0312,-1.33007 0.0117,-1.8086 0.0508,-1.53125 0.11133,-1.71875 c 0.42047,-5.05193 1.80149,-11.44141 6.20703,-11.4414 z"
         transform="translate(0,-177.63802)" />
      <path
         style="font-style:normal;font-weight:normal;font-size:41.8951px;line-height:125%;font-family:Sans;letter-spacing:0px;word-spacing:0px;fill:#ffffff;fill-opacity:1;stroke:none;stroke-width:3.13785;stroke-linecap:butt;stroke-linejoin:miter;stroke-miterlimit:4;stroke-dasharray:none;stroke-opacity:1"
         d="m 241.08714,124.26747 c -12.35056,0.13806 -19.89395,11.9803 -19.89395,23.54013 0,11.91755 6.87189,23.59034 19.29149,24.33087 l 1.25514,0.0377 c 1.84505,0.13806 3.68383,-0.16316 5.36572,-0.88487 l 0.99155,-0.48321 -2.11491,-8.22116 a 11.584933,11.584933 0 0 1 -3.51438,0.69032 c -7.98896,0 -11.4908,-8.56632 -11.4908,-15.53234 0,-7.21078 3.49556,-14.6161 11.54728,-14.6161 0.77819,0.0126 1.5501,0.0941 2.322,0.23849 l 1.12963,0.26988 2.30318,-7.72538 a 17.189129,17.189129 0 0 0 -3.79052,-1.28652 l -1.3179,-0.2322 z"
         id="path1112" />
      <path
         style="font-style:normal;font-weight:normal;font-size:41.8951px;line-height:125%;font-family:Sans;letter-spacing:0px;word-spacing:0px;fill:#ffffff;fill-opacity:1;stroke:none;stroke-width:3.13785;stroke-linecap:butt;stroke-linejoin:miter;stroke-miterlimit:4;stroke-dasharray:none;stroke-opacity:1"
         d="m 64.802868,133.46764 a 10.009734,10.009734 0 0 0 -9.84029,11.08287 12.488633,12.488633 0 0 0 6.959746,11.18957 l 1.700714,1.17356 c 1.468512,1.04804 2.692273,2.19649 2.692273,4.31767 l -0.0063,0.32005 a 4.0478233,4.0478233 0 0 1 -4.305126,3.75914 c -0.922528,0 -1.838779,-0.15064 -2.711101,-0.43929 l -0.85977,-0.33262 -2.096082,5.88032 c 1.907811,1.23631 4.135683,1.88271 6.401209,1.87644 a 10.643579,10.643579 0 0 0 10.925985,-10.80048 l -0.0502,-0.91625 c 0,-4.63146 -2.353386,-7.2296 -4.913869,-9.2692 l -1.550097,-1.16728 -1.493616,-1.10452 c -1.67561,-1.28024 -3.037436,-2.57304 -3.351221,-4.38043 l -0.06903,-0.81585 a 3.457908,3.457908 0 0 1 3.765417,-3.68383 c 1.073144,0.0377 2.121185,0.30752 3.07509,0.77818 l 0.690326,0.40166 1.650508,-6.01212 a 12.846348,12.846348 0 0 0 -5.447303,-1.78857 l -1.161004,-0.0627 z"
         id="path1110" />
      <path
         id="path1108"
         style="font-style:normal;font-weight:normal;font-size:41.8951px;line-height:125%;font-family:Sans;letter-spacing:0px;word-spacing:0px;fill:#ffffff;fill-opacity:1;stroke:none;stroke-width:3.13785;stroke-linecap:butt;stroke-linejoin:miter;stroke-miterlimit:4;stroke-dasharray:none;stroke-opacity:1"
         d="m 264.70898,303.6875 c -8.06427,0 -16.07812,6.29458 -16.07812,23.16992 0,16.88162 8.0013,23.20117 16.07812,23.20117 8.07682,0 16.06641,-6.34465 16.06641,-23.20117 0,-16.31053 -7.48838,-22.74289 -15.28906,-23.14453 l -0.77149,-0.0254 z m 0.0117,8.20312 c 4.17334,0 5.64947,5.30825 6.16407,9.87696 l 0.15039,1.66406 0.082,1.53125 0.0312,1.86914 -0.0312,1.76953 -0.082,1.49414 -0.15039,1.65625 c -0.50833,4.5687 -1.99073,10.08008 -6.16407,10.08008 -4.17961,0 -5.6475,-5.51138 -6.16211,-10.08008 l -0.14453,-1.65625 -0.082,-1.49414 -0.0254,-1.2539 0.008,-1.69532 0.0547,-1.4375 0.10742,-1.60546 0.19532,-1.70704 c 0.5962,-4.34906 2.13279,-9.01171 6.04882,-9.01172 z"
         transform="translate(0,-177.63802)" />
    </g>
  </g>
</svg>
