<?xml version="1.0" encoding="utf-8"?>
<!-- Generator: Adobe Illustrator 13.0.0, SVG Export Plug-In . SVG Version: 6.00 Build 14948)  -->
<!DOCTYPE svg PUBLIC "-//W3C//DTD SVG 1.0//EN" "http://www.w3.org/TR/2001/REC-SVG-20010904/DTD/svg10.dtd">
<svg version="1.0" id="Ebene_1" xmlns="http://www.w3.org/2000/svg" xmlns:xlink="http://www.w3.org/1999/xlink" x="0px" y="0px"
	 width="382.555px" height="537.444px" viewBox="0 0 382.555 537.444" enable-background="new 0 0 382.555 537.444"
	 xml:space="preserve">
<path fill-rule="evenodd" clip-rule="evenodd" fill="#FFFFFF" stroke="#000000" stroke-width="5.1465" stroke-miterlimit="2.6131" d="
	M327.628,23.953C271.023,0.892,191.26,2.602,191.26,2.602S111.496,0.892,54.89,23.953c2.572,66.621-52.317,85.411-52.317,85.411
	v178.507c0,188.754,188.687,246.832,188.687,246.832s188.687-58.078,188.687-246.832V109.364
	C379.946,109.364,325.056,90.574,327.628,23.953L327.628,23.953z"/>
<path fill-rule="evenodd" clip-rule="evenodd" fill="#0062A9" stroke="#000000" stroke-width="5.1465" stroke-miterlimit="2.6131" d="
	M191.26,69.617c-67.755,0-132.082,16.655-188.687,39.716v178.503c0,188.76,188.687,246.838,188.687,246.838
	s188.687-58.078,188.687-246.838V109.333C323.342,86.272,259.015,69.617,191.26,69.617L191.26,69.617z"/>
<polygon fill-rule="evenodd" clip-rule="evenodd" fill="#FFFFFF" stroke="#000000" stroke-width="5.1465" stroke-miterlimit="2.6131" points="
	160.384,236.183 281.315,223.37 302.758,377.965 69.47,430.916 160.384,236.183 "/>
<path fill-rule="evenodd" clip-rule="evenodd" fill="#56AC42" stroke="#000000" stroke-width="5.1465" stroke-miterlimit="2.6131" d="
	M273.783,354.492c-29.276,11.982-66.618,18.521-114.256,15.785l-89.342,87.252c54.138,56.549,121.075,77.15,121.075,77.15
	C322.483,468.498,273.783,354.492,273.783,354.492L273.783,354.492z"/>
<path fill-rule="evenodd" clip-rule="evenodd" fill="#FFED00" stroke="#000000" stroke-width="5.1465" stroke-miterlimit="2.6131" d="
	M379.946,192.624c-24.015-31.603-188.804,25.412-188.804,25.412c54.366,42.853,78.243,90.167,83.206,136.456
	C274.349,354.492,373.943,341.238,379.946,192.624L379.946,192.624z"/>
<path fill-rule="evenodd" clip-rule="evenodd" fill="#E32219" stroke="#000000" stroke-width="5.1465" stroke-miterlimit="2.6131" d="
	M109.353,77.435c-18.628,3.485-36.817,8.019-54.463,13.346v294.866l54.034-61.494L109.353,77.435L109.353,77.435z"/>
<path fill-rule="evenodd" clip-rule="evenodd" fill="#E32219" stroke="#000000" stroke-width="5.1465" stroke-miterlimit="2.6131" d="
	M327.2,90.65c-17.648-5.312-35.836-9.829-54.463-13.296l-0.428,70.002h54.463L327.2,90.65L327.2,90.65z"/>
<path fill-rule="evenodd" clip-rule="evenodd" fill="#E32219" stroke="#000000" stroke-width="5.1465" stroke-miterlimit="2.6131" d="
	M218.274,70.507c-8.936-0.574-17.944-0.882-27.015-0.882c-9.215,0-18.366,0.318-27.444,0.908l0.428,143.442h54.461L218.274,70.507
	L218.274,70.507z"/>
<path fill-rule="evenodd" clip-rule="evenodd" fill="#FFFFFF" stroke="#000000" stroke-width="5.1465" stroke-miterlimit="2.6131" d="
	M379.955,109.349c-0.357-0.145-0.715-0.287-1.069-0.431c-44.291,0.741-284.269,16.14-363.148,260.351
	c15.533,45.182,42.88,79.354,71.448,104.555c23.249-264.078,244.392-281.26,292.77-281.843V109.349L379.955,109.349z"/>
<path fill-rule="evenodd" clip-rule="evenodd" fill="#E32219" stroke="#000000" stroke-width="5.1465" stroke-miterlimit="2.6131" d="
	M273.783,354.492C381.537,310.4,379.946,192.624,379.946,192.624v95.224c0,188.754-188.687,246.832-188.687,246.832
	c44.432-26.701,91.6-100.781,83.089-180.188H273.783L273.783,354.492z"/>
<path fill-rule="evenodd" clip-rule="evenodd" fill="#FFFFFF" stroke="#000000" stroke-width="5.1465" stroke-miterlimit="2.6131" d="
	M168.962,515.9c41.443,0,75.044-33.463,75.044-74.736s-33.601-74.73-75.044-74.73c-41.448,0-75.047,33.457-75.047,74.73
	S127.514,515.9,168.962,515.9L168.962,515.9z"/>
<path fill="none" stroke="#000000" stroke-width="5.1465" stroke-miterlimit="2.6131" d="M107.207,455.684l-8.004,13.67
	 M104.062,430.916l-9.146-3.135 M135.798,390.486l-15.439,32.461 M134.939,438.316l32.877-9.961 M159.813,381.094l20.011,26.191
	 M207.271,409.277l16.579-19.072 M208.984,433.764l17.725,22.207 M178.394,492.979l36.596-9.961 M165.531,476.754l19.726-33.879
	 M140.942,480.17l-16.009-23.35 M121.217,498.961l18.869-0.287 M167.816,506.643l1.715,9.111"/>
<path fill-rule="evenodd" clip-rule="evenodd" stroke="#000000" stroke-width="2.5592" stroke-miterlimit="2.6131" d="
	M218.134,497.818l-7.148-13.664l13.151-31.887l19.441-8.537C243.578,443.73,245.579,474.762,218.134,497.818L218.134,497.818z"/>
<path fill-rule="evenodd" clip-rule="evenodd" stroke="#000000" stroke-width="2.5592" stroke-miterlimit="2.6131" d="
	M178.394,367.143l-15.437,17.654l-30.019,11.953l-14.865-10.816C118.073,385.934,142.089,362.021,178.394,367.143L178.394,367.143z"
	/>
<polygon fill-rule="evenodd" clip-rule="evenodd" stroke="#000000" stroke-width="2.5592" stroke-miterlimit="2.6131" points="
	100.347,429.779 104.919,459.668 128.078,461.947 141.229,436.611 123.218,416.965 100.347,429.779 "/>
<polygon fill-rule="evenodd" clip-rule="evenodd" stroke="#000000" stroke-width="2.5592" stroke-miterlimit="2.6131" points="
	160.098,430.348 181.253,449.139 212.418,437.461 210.985,404.156 175.536,401.309 160.098,430.348 "/>
<polygon fill-rule="evenodd" clip-rule="evenodd" stroke="#000000" stroke-width="2.5592" stroke-miterlimit="2.6131" points="
	137.799,475.611 134.083,498.674 168.676,510.914 184.684,490.986 168.389,471.627 137.799,475.611 "/>
<path fill-rule="evenodd" clip-rule="evenodd" d="M96.027,29.624c3.233-0.639,5.398-0.951,6.497-0.935
	c1.516,0.003,2.867,0.489,4.053,1.465c1.185,0.974,1.956,2.353,2.312,4.143c0.289,1.45,0.199,2.795-0.267,4.022
	c-0.464,1.23-1.242,2.221-2.328,2.971c-1.087,0.747-3.394,1.469-6.914,2.165l-4.915,0.973l-2.78-13.947L96.027,29.624L96.027,29.624
	z M99.824,71.309l-3.696-18.536l5.856-1.156c4.061-0.803,7.112-1.649,9.151-2.54c1.494-0.69,2.889-1.774,4.181-3.25
	c1.292-1.474,2.227-3.335,2.804-5.587c0.577-2.25,0.567-4.884-0.034-7.903c-0.781-3.91-2.275-6.929-4.482-9.059
	c-2.21-2.13-4.655-3.313-7.337-3.551c-1.759-0.164-5.367,0.294-10.819,1.371L81.074,23.94l9.797,49.138L99.824,71.309L99.824,71.309
	z"/>
<polygon fill-rule="evenodd" clip-rule="evenodd" points="129.042,65.303 123.572,15.88 132.653,14.884 137.195,55.909 
	159.823,53.424 160.75,61.819 129.042,65.303 "/>
<polygon fill-rule="evenodd" clip-rule="evenodd" points="166.557,61.522 166.368,52.39 189.49,19.381 168.407,19.815 
	168.231,11.333 201.37,10.655 201.531,18.519 177.439,52.849 203.195,52.318 203.371,60.766 166.557,61.522 "/>
<polygon fill-rule="evenodd" clip-rule="evenodd" points="209.017,61.046 212.781,11.067 246.262,13.566 245.626,22.024 
	221.254,20.203 220.416,31.285 243.08,32.975 242.444,41.396 219.783,39.703 218.758,53.306 243.988,55.191 243.355,63.611 
	209.017,61.046 "/>
<polygon fill-rule="evenodd" clip-rule="evenodd" points="250.926,64.572 259.492,15.204 268.252,16.709 280.791,52.821 
	286.513,19.853 294.897,21.296 286.331,70.663 277.305,69.11 264.897,33.82 259.313,66.013 250.926,64.572 "/>
<polygon fill-rule="evenodd" clip-rule="evenodd" points="288.654,15.564 283.19,14.703 278.333,17.196 274.492,13.333 
	269.02,12.538 275.154,18.732 275.292,18.756 275.286,18.759 276.607,18.964 280.75,19.625 280.738,19.613 280.888,19.635 
	288.654,15.564 "/>
<polygon fill-rule="evenodd" clip-rule="evenodd" points="82.331,400.799 33.909,386.977 42.477,357.211 50.668,359.543 
	44.629,380.537 56.09,383.807 61.306,365.684 69.499,368.021 64.283,386.145 84.859,392.016 82.331,400.799 "/>
<path fill-rule="evenodd" clip-rule="evenodd" d="M87.72,330.363l6.378-6.867c4.506,3.404,7.355,7.078,8.544,11.027
	c1.191,3.949,0.825,8.145-1.099,12.58c-2.386,5.502-6.442,9.123-12.166,10.857c-5.725,1.734-12.223,1.031-19.493-2.092
	c-7.689-3.311-12.888-7.658-15.601-13.043c-2.711-5.385-2.808-10.98-0.296-16.775c2.196-5.057,5.647-8.449,10.358-10.178
	c2.793-1.031,6.243-1.225,10.349-0.574l-1.377,9.205c-2.61-0.527-4.947-0.322-7.005,0.633s-3.568,2.537-4.529,4.752
	c-1.333,3.076-1.187,6.1,0.441,9.07c1.63,2.977,5.194,5.643,10.699,8.01c5.839,2.514,10.406,3.363,13.702,2.543
	c3.297-0.814,5.597-2.73,6.904-5.742c0.961-2.215,1.002-4.465,0.122-6.744C92.77,334.746,90.795,332.525,87.72,330.363
	L87.72,330.363z"/>
<polygon fill-rule="evenodd" clip-rule="evenodd" points="127.708,298.348 77.506,282 83.277,274.055 120.153,286.535 
	96.49,255.866 102.183,248.032 133.439,290.455 127.708,298.348 "/>
<polygon fill-rule="evenodd" clip-rule="evenodd" points="146.314,274.652 109.132,240.853 115.313,234.11 152.496,267.908 
	146.314,274.652 "/>
<polygon fill-rule="evenodd" clip-rule="evenodd" points="158.189,261.352 125.351,223.332 132.303,217.375 146.887,234.259 
	146.315,205.374 155.638,197.388 155.485,223.285 189.181,234.804 180.194,242.502 155.356,232.734 155.219,243.907 
	165.142,255.394 158.189,261.352 "/>
<polygon fill-rule="evenodd" clip-rule="evenodd" points="201.561,227.514 179.408,192.151 167.978,199.252 163.466,192.051 
	194.055,173.048 198.563,180.248 187.166,187.33 209.318,222.696 201.561,227.514 "/>
<path fill-rule="evenodd" clip-rule="evenodd" d="M219.101,174.299c0.955-3.546,3.149-6.075,6.583-7.586
	c3.454-1.519,6.797-1.444,10.028,0.226c3.229,1.667,6.006,5.131,8.338,10.386c2.358,5.317,3.059,9.776,2.101,13.374
	s-3.108,6.132-6.46,7.605c-3.328,1.465-6.674,1.333-10.028-0.394c-3.357-1.726-6.182-5.186-8.484-10.378
	C218.84,182.256,218.146,177.845,219.101,174.299L219.101,174.299z M225.777,206.42c5.479,2.562,11.294,2.492,17.452-0.217
	c6.094-2.678,10.028-6.907,11.81-12.686c1.778-5.779,1.028-12.368-2.256-19.771c-3.308-7.465-7.726-12.488-13.248-15.067
	s-11.329-2.531-17.426,0.146c-3.369,1.485-6.085,3.4-8.145,5.751c-1.529,1.743-2.698,3.901-3.51,6.476
	c-0.809,2.574-1.169,5.237-1.072,7.985c0.144,3.724,1.257,7.919,3.328,12.59C215.948,198.926,220.299,203.856,225.777,206.42
	L225.777,206.42z"/>
<path fill-rule="evenodd" clip-rule="evenodd" d="M266.857,152.046l6.873-1.944c3.568-1.009,5.719-1.56,6.457-1.648
	c1.503-0.142,2.789,0.174,3.853,0.951c1.066,0.778,1.834,1.979,2.297,3.599c0.413,1.449,0.46,2.738,0.141,3.87
	c-0.319,1.135-0.943,2.046-1.881,2.736c-0.932,0.691-3.513,1.633-7.743,2.83l-6.504,1.84L266.857,152.046L266.857,152.046z
	 M278.292,192.11l-5.745-20.13l1.787-0.504c2.021-0.574,3.551-0.812,4.579-0.712c1.028,0.103,2.098,0.521,3.214,1.26
	c1.113,0.74,3.334,2.667,6.65,5.779l9.366,8.688l10.535-2.981l-8.001-7.901c-3.185-3.151-5.602-5.288-7.254-6.407
	c-1.652-1.121-3.612-2.023-5.877-2.711c3.653-1.698,6.111-3.999,7.362-6.901c1.254-2.902,1.365-6.163,0.331-9.782
	c-0.812-2.849-2.174-5.2-4.084-7.055c-1.91-1.853-4.037-2.917-6.387-3.185c-2.353-0.272-5.859,0.252-10.526,1.573l-18.533,5.244
	l13.761,48.223L278.292,192.11L278.292,192.11z"/>
<polygon fill-rule="evenodd" clip-rule="evenodd" points="313.577,183.119 303.936,133.906 312.938,132.154 322.58,181.371 
	313.577,183.119 "/>
<path fill-rule="evenodd" clip-rule="evenodd" d="M340.85,158.398l3.952-19.182l8.335,17.783L340.85,158.398L340.85,158.398z
	 M348.385,127.034l-9.627,1.094l-11.789,51.82l9.627-1.096l2.42-11.741l17.991-2.049l5.253,10.869l9.864-1.124L348.385,127.034
	L348.385,127.034z"/>
<path fill="none" stroke="#000000" stroke-width="5.1465" stroke-miterlimit="2.6131" d="M327.628,23.953
	C271.023,0.892,191.26,2.602,191.26,2.602S111.496,0.892,54.89,23.953c2.572,66.621-52.317,85.411-52.317,85.411 M2.573,109.364
	v178.507 M2.573,287.871c0,188.754,188.687,246.832,188.687,246.832s188.687-58.078,188.687-246.832 M379.946,287.871V109.364
	 M379.946,109.364c0,0-54.891-18.79-52.318-85.411"/>
</svg>
